<?xml version="1.0" encoding="utf-8"?>
<!-- Generator: Adobe Illustrator 23.0.1, SVG Export Plug-In . SVG Version: 6.00 Build 0)  -->
<svg version="1.1" id="Слой_1" xmlns="http://www.w3.org/2000/svg" xmlns:xlink="http://www.w3.org/1999/xlink" x="0px" y="0px"
	 viewBox="0 0 500 500" style="enable-background:new 0 0 500 500;" xml:space="preserve">
<style type="text/css">
	.st0{fill:#FFFFFF;}
	.st1{fill:#2F2C2B;}
</style>
<g>
	<g>
		<g>
			<path class="st0" d="M497.4,263.6c-2-1.3-4.6-1.1-6.4,0.4l-4,3.4c-0.5,0.4-11,8.8-24.5,11.4c10-7.8,19.9-19.5,22.5-36.4l0.9-5.7
				c0.4-2.4-0.8-4.7-3-5.7c-2.1-1.1-4.7-0.6-6.4,1.1l-3.8,3.8c-0.1,0.1-14.2,14.1-34.5,17.6c-1.7,0.3-3.5,0.6-5.4,0.8l-0.6,0.1
				c-1,0.1-1.9,0.5-2.7,1.1c-0.9-0.4-1.8-0.6-2.8-0.5l-2,0.2c-8.2,0.7-16.2,0.9-24,1.1c-1.4,0-2.8,0.1-4.2,0.1l23-18.2
				c6.3,4.1,13.9,6.3,21.4,6.3c21.7,0,39.4-17.7,39.4-39.4c0-21.7-17.7-39.4-39.4-39.4c-16.9,0-31.9,10.9-37.3,26.8l-87.2,1.6
				l-40.2-92.9c8.1-7.5,12.7-17.9,12.7-28.9c0-21.7-17.7-39.4-39.4-39.4s-39.4,17.7-39.4,39.4c0,11,4.6,21.5,12.7,28.9L182.9,194
				l-86.8-1.6c-5.4-15.9-20.4-26.8-37.3-26.8c-21.7,0-39.4,17.7-39.4,39.4c0,21.7,17.7,39.4,39.4,39.4c7.4,0,14.9-2.2,21.2-6.2
				l12.9,10.2c-0.6,0.3-1.1,0.7-1.7,1c-5.8,3.6-9.9,10.2-10.9,17.5c-1.1,8.2-2,16.1-2.5,23.3c-3.7,1.4-12.3,3.7-29.5,4.3
				c-3.8,0.1-7.5,0.7-11,1.8L35,297c-1.4,0.4-2.5,1.3-3.2,2.6l-0.4,0c-1.1-0.1-2.2,0.1-3.3,0.8l-0.4,0.3
				c-18.9,11.3-25,34.6-25.2,35.6l-1.4,5.6c-0.6,2.3,0.4,4.7,2.4,6c2,1.3,4.6,1.1,6.4-0.4l4.1-3.4c0.1-0.1,10.8-8.7,24.4-11.3
				c-10,7.8-19.8,19.5-22.4,36.4l-0.9,5.7c-0.4,2.4,0.8,4.7,3,5.7c2.1,1,4.7,0.6,6.4-1.1l3.7-3.8c0.1-0.1,14.3-14.1,34.5-17.6
				c1.7-0.3,3.5-0.6,5.4-0.8l0.6-0.1c1-0.1,1.9-0.5,2.7-1.1c0.9,0.4,1.8,0.6,2.8,0.5l2-0.2c8.2-0.7,16.2-0.9,24-1.1
				c9.3-0.2,18.1-0.4,25.5-1.6c0.9-0.1,1.8-0.3,2.7-0.5l-12.5,37.1c-20.3,1.5-36.4,18.8-36.4,39.3c0,21.7,17.7,39.4,39.4,39.4
				c21.7,0,39.4-17.7,39.4-39.4c0-2.1-0.2-4.2-0.5-6.3l92.2-62.9L343,424c-0.3,1.9-0.4,3.7-0.4,5.5c0,21.7,17.7,39.4,39.4,39.4
				c21.7,0,39.4-17.7,39.4-39.4c0-21.1-16.6-38.3-37.7-39.4l-4.6-13.6c12.8-4.2,23-10,30.6-14.8c5.8-3.6,9.9-10.2,10.9-17.5
				c1.1-8.2,2-16,2.5-23.3c3.7-1.4,12.3-3.7,29.5-4.3c3.8-0.1,7.5-0.7,11-1.8l2.2-0.7c1.4-0.4,2.5-1.3,3.2-2.6l0.5,0
				c1.1,0.1,2.2-0.2,3.2-0.8l0.4-0.3c19-11.3,25-34.6,25.2-35.6l1.4-5.6C500.4,267.3,499.4,264.9,497.4,263.6z"/>
		</g>
	</g>
	<g>
		<g>
			<g>
				<path class="st1" d="M144.5,289.9c0-3.6-1.3-6.6-3.8-8.7c-11.3-9.2-46.9,4.8-57.7,9.4c-0.4,0.1-0.8,0.4-1.1,0.8
					c-0.1,0.1-6.7,5.1-33.5,6c-3.6,0.1-7,0.7-10.3,1.7l-2.2,0.7c-0.8,0.2-1.4,0.8-1.7,1.5c-0.2,0.4-0.3,0.9-0.2,1.3l-2.7-0.2
					c-0.6-0.1-1.1,0.1-1.6,0.4l-0.4,0.3c-18,10.7-23.7,33-24,33.9l-1.4,5.6c-0.3,1.1,0.2,2.3,1.2,3c1,0.6,2.3,0.5,3.2-0.2l4.1-3.4
					c0.2-0.2,17.1-13.8,36.1-12.7c-11.1,6.5-26.5,19.1-29.7,40.2l-0.9,5.7c-0.2,1.2,0.4,2.3,1.5,2.9c0.4,0.2,0.8,0.3,1.2,0.3
					c0.7,0,1.4-0.3,2-0.8l3.8-3.8c0.1-0.1,14.8-14.7,36-18.4c1.8-0.3,3.6-0.6,5.5-0.8l0.6-0.1c0.6-0.1,1.2-0.4,1.6-0.8l1.3-1.4
					c0.1,0.3,0.3,0.5,0.6,0.8c0.6,0.6,1.4,0.8,2.1,0.8l2-0.2c8.3-0.7,16.3-0.9,24.1-1.1c9.2-0.2,18-0.4,25.1-1.5
					c16-2.5,29.6-12.4,29.6-21.7c0-2.9-1.4-6.3-3.3-11C148.5,310.9,144.4,300.8,144.5,289.9z"/>
			</g>
		</g>
		<g>
			<g>
				<path class="st1" d="M496,266c-1-0.6-2.3-0.5-3.2,0.2l-4.1,3.4c-0.3,0.3-17.1,13.8-36.1,12.7c11.1-6.5,26.5-19.1,29.7-40.2
					l0.9-5.7c0.2-1.2-0.4-2.3-1.5-2.9c-1.1-0.5-2.3-0.3-3.2,0.5l-3.8,3.8c-0.1,0.1-14.8,14.7-36,18.4c-1.8,0.3-3.6,0.6-5.5,0.8
					l-0.6,0.1c-0.6,0.1-1.2,0.4-1.6,0.8l-1.3,1.4c-0.1-0.3-0.3-0.5-0.6-0.8c-0.6-0.6-1.4-0.8-2.1-0.8l-2,0.2
					c-8.3,0.7-16.3,0.9-24.1,1.1c-9.2,0.2-18,0.4-25.1,1.5c-16,2.5-29.6,12.4-29.6,21.7c0,2.9-0.8,7.6,1.1,12.4
					c3,7.3,9.2,16,9.1,26.9c0,3.6,1.3,6.6,3.8,8.7c2.5,2.1,6.3,3.1,11.3,3.1c1.4,0,3-0.1,4.7-0.3c16-1.6,37.5-10.4,41.7-12.2
					c0.4-0.1,0.8-0.5,1.1-0.8c0.1,0,6.7-5.1,33.5-6c3.6-0.1,7.1-0.7,10.3-1.7l2.2-0.7c0.8-0.2,1.4-0.8,1.7-1.5
					c0.2-0.4,0.3-0.9,0.2-1.3l2.7,0.2c0.6,0,1.1-0.1,1.6-0.4l0.4-0.3c18.1-10.8,23.7-33,24-33.9l1.4-5.6
					C497.5,267.8,497,266.6,496,266z"/>
			</g>
		</g>
	</g>
	<g>
		<g>
			<g>
				<g>
					<path class="st0" d="M84.7,295c0,0-5.9,6.1-36.3,7.1c-3.3,0.1-6.4,0.6-9.3,1.5l1.9,4.1l-9.9-0.7C14.7,317,9.5,338,9.5,338
						s26.6-22.1,53-10.3c0,0-34.6,11.3-39.4,42.4c0,0,15.3-15.6,38.4-19.6c1.9-0.3,3.8-0.6,5.7-0.9l8.8-9.1l-0.5,8.2
						c18.5-1.6,36.4-0.6,48.9-2.6c15.7-2.4,25.8-11.6,25.8-17c0-5.4-10.4-20.9-10.2-39.3C140.2,271.5,84.7,295,84.7,295z"/>
				</g>
			</g>
		</g>
		<g>
			<g>
				<g>
					<path class="st1" d="M20.5,375.5l0.9-5.7c3.8-24.9,25.4-37.4,35.5-42c-23.5-6.7-46.2,11.7-46.4,11.9l-4.1,3.4l1.4-5.6
						c0.2-0.9,5.6-22,22.7-32.2l0.4-0.3l7.2,0.5l-1.5-3.2l2.2-0.7c3.1-0.9,6.3-1.4,9.7-1.5c28.7-1,35.1-6.6,35.2-6.6l0.3-0.3
						l0.3-0.1c4.5-1.9,44.3-18.4,54.8-9.8c1.9,1.5,2.9,3.8,2.8,6.5c-0.1,11.5,4.1,21.8,7.1,29.4c1.8,4.4,3.1,7.6,3.1,9.9
						c0,7-11.3,16.5-27.3,19c-6.9,1.1-15.6,1.3-24.8,1.5c-7.8,0.2-15.9,0.4-24.3,1.1l-2,0.2l0.3-5.6l-6.1,6.2l-0.6,0.1
						c-1.9,0.3-3.8,0.5-5.6,0.9c-22.3,3.9-37.4,19-37.5,19.2L20.5,375.5z M41.3,322.4c6.9-0.7,14.3,0,21.8,3.4L68,328l-5.1,1.7
						c-0.3,0.1-29.4,9.9-36.9,35.3c6.1-5,18.6-13.6,35.2-16.5c1.7-0.3,3.4-0.6,5.2-0.8L78,335.7l-0.6,10.8
						c7.7-0.6,15.2-0.8,22.5-0.9c9.1-0.2,17.6-0.4,24.4-1.5c15-2.3,24.2-11,24.2-14.9c0-1.4-1.3-4.7-2.7-8.2
						c-3-7.5-7.6-18.7-7.5-31.1c0-1.4-0.4-2.4-1.4-3.2c-7.6-6.2-39.4,5.1-51.3,10.1c-1.7,1.4-9.6,6.4-37.1,7.3
						c-2.3,0.1-4.5,0.4-6.6,0.8l2.3,5l-12.6-0.8c-10.3,6.3-16,17.3-18.6,23.9C18.7,329.3,29.1,323.7,41.3,322.4z"/>
				</g>
			</g>
		</g>
		<g>
			<g>
				<g>
					<path class="st1" d="M90.1,331.4c0.8,1.7,1.8,3,3.2,3.9c1.4,0.8,3,1.2,4.7,1.1c3.5-0.1,7.1-1.6,10.5-3.3c1.7-0.9,3.4-1.9,5-2.9
						c1.6-1.1,3.4-2.2,5.2-3.1c3.5-2,7.2-3.6,11-4.7c1.9-0.6,3.9-1,5.8-1.2c2-0.2,4-0.1,6,0.5c1,0.3,2,0.9,2.9,1.7
						c0.4,0.4,0.8,0.9,1.1,1.5c0.3,0.5,0.6,1.3,0.6,2c0.1,1.5-0.6,2.8-1.2,3.8c-0.7,1-1.4,1.8-2.3,2.5c-3.2,2.8-6.9,4.6-10.6,5.8
						c-1.9,0.6-3.8,1-5.8,1.3c-1,0.1-2,0.1-2.9,0.1c-1-0.1-1.9-0.2-2.9-0.4c1,0,1.9,0,2.9-0.1c0.9-0.1,1.9-0.4,2.8-0.6
						c1.8-0.5,3.6-1.3,5.4-2.1c1.7-0.9,3.4-1.9,4.9-3.1c1.5-1.2,3-2.5,4.2-3.9c0.6-0.7,1.1-1.4,1.4-2c0.2-0.3,0.2-0.6,0.3-0.8
						c0-0.1,0-0.1,0.1-0.1c0.1,0,0.3,0,0.5,0c0.1,0,0.2,0,0.3-0.1c0.2-0.1,0.4-0.2,0.5-0.3c0.4-0.3,0.5-0.6,0.3-0.8
						c-0.4-0.3-0.5-0.7-0.9-0.9c-0.6-0.6-1.4-1-2.2-1.2c-1.7-0.5-3.5-0.5-5.3-0.3c-1.8,0.2-3.7,0.7-5.4,1.3
						c-3.6,1.2-7.1,2.9-10.4,4.9c-1.7,1-3.3,2.1-5,3.2c-1.7,1.1-3.4,2.2-5.2,3.2c-3.6,1.9-7.3,3.7-11.5,4c-2.1,0.2-4.3-0.1-6.4-1.3
						c-2.1-1.1-3.7-3.2-4.7-5.3L90.1,331.4z"/>
				</g>
			</g>
		</g>
		<g>
			<g>
				<g>
					<path class="st1" d="M88.6,334.4c0.8,1.7,1.8,3,3.2,3.9c1.4,0.8,3,1.2,4.7,1.1c3.5-0.1,7.1-1.6,10.5-3.3c1.7-0.9,3.4-1.9,5-2.9
						c1.6-1.1,3.4-2.2,5.2-3.1c3.5-2,7.2-3.6,11-4.7c1.9-0.6,3.9-1,5.8-1.2c2-0.2,4-0.1,6,0.5c1,0.3,2,0.9,2.9,1.7
						c0.4,0.4,0.8,0.9,1.1,1.5c0.3,0.5,0.6,1.3,0.6,2c0.1,1.5-0.6,2.8-1.2,3.8c-0.7,1-1.4,1.8-2.3,2.5c-3.2,2.8-6.9,4.6-10.6,5.8
						c-1.9,0.6-3.8,1-5.8,1.2c-1,0.1-2,0.1-2.9,0.1c-1-0.1-1.9-0.2-2.9-0.4c1,0.1,1.9,0,2.9-0.1c0.9-0.1,1.9-0.4,2.8-0.6
						c1.8-0.5,3.6-1.3,5.4-2.1c1.7-0.9,3.4-1.9,4.9-3.1c1.5-1.2,3-2.5,4.2-3.9c0.6-0.7,1.1-1.4,1.4-2c0.2-0.3,0.2-0.6,0.3-0.8
						c0-0.1,0-0.1,0.1-0.1c0.1,0,0.3,0,0.5,0c0.1,0,0.2,0,0.3-0.1c0.2-0.1,0.4-0.2,0.5-0.3c0.4-0.3,0.5-0.6,0.3-0.8
						c-0.4-0.3-0.5-0.7-0.9-0.9c-0.6-0.6-1.4-1-2.2-1.2c-1.7-0.5-3.5-0.5-5.3-0.3c-1.8,0.2-3.7,0.7-5.4,1.3
						c-3.6,1.2-7.1,2.9-10.4,4.9c-1.7,1-3.3,2.1-5,3.2c-1.7,1.1-3.4,2.2-5.2,3.2c-3.6,1.9-7.3,3.7-11.5,4c-2.1,0.2-4.3-0.1-6.4-1.3
						c-2.1-1.1-3.7-3.2-4.7-5.3L88.6,334.4z"/>
				</g>
			</g>
		</g>
		<g>
			<g>
				<g>
					<g>
						<path class="st1" d="M133.4,323.8c-0.3,0.6-0.6,0.9-0.9,1.4c-0.3,0.4-0.7,0.7-1,1.1c-0.7,0.6-1.4,1.2-2.2,1.6
							c-0.8,0.4-1.5,0.8-2.3,1c-0.8,0.3-1.6,0.4-2.4,0.5c0.7-0.4,1.4-0.8,2-1.4c0.6-0.5,1.2-1.1,1.7-1.7c0.5-0.6,0.9-1.3,1.3-2
							c0.2-0.3,0.3-0.7,0.5-1.1c0.1-0.2,0.1-0.4,0.2-0.5c0-0.2,0.1-0.4,0.1-0.4L133.4,323.8z"/>
					</g>
				</g>
			</g>
			<g>
				<g>
					<g>
						<path class="st1" d="M136.9,323.7c-0.1,0.3-0.2,0.5-0.3,0.7c-0.1,0.2-0.2,0.4-0.3,0.5c-0.2,0.3-0.4,0.7-0.6,1
							c-0.4,0.6-0.9,1.2-1.4,1.7c-1,1-2.1,1.8-3.2,2.4c-1.1,0.6-2.3,1.1-3.5,1.4c-0.6,0.2-1.2,0.3-1.8,0.4L124,332l1.7-0.7
							c0.5-0.3,1.1-0.5,1.6-0.9c1-0.6,2-1.3,2.9-2.2c0.9-0.8,1.6-1.8,2.2-2.8c0.3-0.5,0.6-1,0.8-1.6c0.1-0.3,0.2-0.5,0.3-0.8
							c0-0.1,0.1-0.3,0.1-0.4c0-0.1,0.1-0.3,0.1-0.3L136.9,323.7z"/>
					</g>
				</g>
			</g>
			<g>
				<g>
					<g>
						<path class="st1" d="M140,324.9c-0.1,0.4-0.2,0.6-0.4,0.8c-0.1,0.2-0.3,0.4-0.4,0.7c-0.3,0.4-0.5,0.8-0.8,1.2
							c-0.6,0.7-1.2,1.4-1.8,2c-1.3,1.2-2.7,2.1-4.2,2.8c-1.4,0.7-3,1.2-4.4,1.6c-0.8,0.2-1.5,0.3-2.3,0.4l-2.3,0.2l2.2-0.7
							c0.7-0.3,1.4-0.6,2.1-0.9c1.4-0.7,2.7-1.4,3.9-2.4c1.2-0.9,2.3-2,3.2-3.2c0.4-0.6,0.9-1.2,1.2-1.9c0.2-0.3,0.3-0.7,0.5-1
							c0.1-0.2,0.1-0.3,0.2-0.5c0-0.1,0.1-0.4,0.1-0.4L140,324.9z"/>
					</g>
				</g>
			</g>
			<g>
				<g>
					<g>
						<path class="st1" d="M143.2,326.1c-0.1,0.5-0.2,0.7-0.4,1c-0.1,0.3-0.3,0.5-0.5,0.8c-0.3,0.5-0.7,1-1,1.4
							c-0.7,0.9-1.5,1.6-2.3,2.3c-1.6,1.4-3.4,2.4-5.1,3.1c-1.8,0.8-3.6,1.3-5.4,1.7l-2.7,0.5l-2.8,0.3l2.7-0.8l2.6-1
							c1.7-0.8,3.4-1.6,4.9-2.6c1.5-1,3-2.2,4.2-3.6c0.6-0.7,1.1-1.4,1.6-2.2c0.2-0.4,0.4-0.8,0.6-1.2c0.1-0.2,0.2-0.4,0.2-0.6
							c0.1-0.2,0.1-0.4,0.1-0.5L143.2,326.1z"/>
					</g>
				</g>
			</g>
		</g>
		<g>
			<g>
				<g>
					<path class="st1" d="M84.8,304.3c-1.3,0.5-2.4,0.8-3.5,1.1c-1.2,0.3-2.3,0.6-3.5,0.8c-2.3,0.4-4.6,0.7-7,0.8
						c-2.3,0.1-4.6,0.2-6.9,0c-1.2,0-2.3-0.2-3.4-0.2c-1.1-0.1-2.3-0.3-3.4-0.4c1.1,0,2.3-0.1,3.4-0.1c1.1-0.1,2.3-0.1,3.4-0.3
						c2.3-0.2,4.5-0.6,6.8-1c2.2-0.5,4.4-1.1,6.6-1.8c1.1-0.4,2.1-0.8,3.2-1.2c1-0.4,2.1-0.9,3-1.4l0.7,1.9L84.8,304.3z"/>
				</g>
			</g>
			<g>
				<g>
					<path class="st1" d="M83.9,306.4l0.6,1.9l0.6,1.9c-1.1,0.4-2.1,0.6-3.1,0.8c-1,0.2-2,0.4-3,0.5c-2,0.3-4,0.4-6,0.5
						c-1.8,0.1-3.5,0.1-5.3,0c-0.9,0-1.8-0.1-2.6-0.2c-0.9-0.1-1.7-0.2-2.6-0.3c0.5-0.1,1-0.1,1.5-0.3c0.3-0.1,0.6-0.2,0.9-0.2
						c0.4,0,0.8,0,1.2-0.1c2.1-0.1,4.1-0.4,6.2-0.8c0.8-0.2,1.6-0.3,2.4-0.5c1.2-0.3,2.5-0.6,3.7-1c0.4-0.1,0.7-0.2,1.1-0.4
						c0.6-0.2,1.2-0.4,1.8-0.7C82.1,307.2,83.1,306.8,83.9,306.4z"/>
				</g>
			</g>
			<g>
				<g>
					<path class="st1" d="M84.4,312.2l0.4,1.9l0.4,1.9c-0.9,0.2-1.8,0.4-2.6,0.5c-0.8,0.1-1.7,0.2-2.5,0.3c-1.7,0.2-3.4,0.2-5.1,0.2
						c-1.2,0-2.5,0-3.7-0.1c-0.6,0-1.2-0.1-1.8-0.2c-0.6-0.1-1.2-0.2-1.8-0.2c-0.2-0.1-0.4-0.2-0.5-0.4c-0.1-0.1-0.2-0.2-0.3-0.4
						c0.4,0,0.8,0,1.1,0c1.9,0,3.8-0.2,5.6-0.5c0.7-0.1,1.4-0.3,2.2-0.4c1.1-0.2,2.2-0.5,3.3-0.8c0.3-0.1,0.7-0.2,1-0.3
						c0.6-0.2,1.1-0.4,1.7-0.5C82.7,312.9,83.6,312.5,84.4,312.2z"/>
				</g>
			</g>
			<g>
				<g>
					<path class="st1" d="M85.5,322c-1.4,0.1-2.8,0.2-4.2,0.2c-1.4,0-2.8,0-4.1-0.1c-1.4-0.1-2.7-0.2-4.1-0.5c-1.4-0.2-2.7-0.6-4-1
						c2.7,0.2,5.4-0.1,8-0.6c1.3-0.3,2.6-0.6,3.9-0.9c1.3-0.3,2.6-0.7,3.8-1.2l0.3,2L85.5,322z"/>
				</g>
			</g>
		</g>
		<g>
			<g>
				<g>
					<path class="st1" d="M140.9,306.5l5.3,14.6c0,0-3.2-4-14.3-2.4c0,0,5.6-3.1,9.9-2.3c0,0-4.3-2.6-11.4-0.7c0,0,4.3-3.5,10.1-2.9
						c0,0-4.9-1.5-11.2,0c0,0,5.7-3.6,9.3-4.3C142.3,307.9,140.9,306.5,140.9,306.5z"/>
				</g>
			</g>
		</g>
		<g>
			<g>
				<g>
					<polygon class="st1" points="132,323.8 144.4,328.4 145.3,326.8 143.8,324.1 140.1,322.4 135.8,322.7 					"/>
				</g>
			</g>
		</g>
	</g>
	<g>
		<g>
			<g>
				<g>
					<path class="st0" d="M416.2,316.3c0,0,5.9-6.1,36.3-7.1c3.3-0.1,6.4-0.6,9.3-1.5l-1.9-4.1l9.9,0.7
						c16.6-9.9,21.8-30.9,21.8-30.9s-26.6,22.1-53,10.3c0,0,34.6-11.3,39.4-42.4c0,0-15.3,15.6-38.4,19.6c-1.9,0.3-3.8,0.6-5.7,0.9
						l-8.8,9.1l0.5-8.2c-18.5,1.6-36.4,0.6-48.9,2.6c-15.7,2.4-25.8,11.6-25.8,17c0,5.4,10.4,20.9,10.2,39.3
						C360.7,339.8,416.2,316.3,416.2,316.3z"/>
				</g>
			</g>
		</g>
		<g>
			<g>
				<g>
					<path class="st1" d="M376,330.2c-6,0.6-11.1,0.1-14-2.2c-1.9-1.5-2.9-3.8-2.8-6.5c0.1-11.5-4.1-21.8-7.1-29.4
						c-1.8-4.4-3.1-7.6-3.1-9.9c0-7,11.3-16.5,27.3-19c6.9-1.1,15.6-1.3,24.8-1.5c7.8-0.2,15.9-0.4,24.3-1.1l2-0.2L427,266l6.1-6.2
						l0.6-0.1c1.9-0.3,3.8-0.5,5.6-0.9c22.3-3.9,37.4-19,37.5-19.2l3.8-3.8l-0.9,5.7c-3.8,24.9-25.4,37.4-35.5,42
						c23.5,6.7,46.2-11.7,46.4-11.9l4.1-3.4l-1.4,5.6c-0.2,0.9-5.6,22-22.7,32.2l-0.4,0.3l-7.2-0.5l1.5,3.2l-2.2,0.7
						c-3.1,0.9-6.3,1.4-9.7,1.5c-28.7,1-35.1,6.6-35.2,6.6l-0.3,0.3l-0.3,0.1C413.5,319.6,391.7,328.6,376,330.2z M380.9,266.7
						c-1.5,0.1-2.9,0.3-4.2,0.5c-15,2.3-24.2,11-24.2,14.9c0,1.4,1.3,4.7,2.7,8.2c3,7.5,7.6,18.7,7.5,31.1c0,1.4,0.4,2.4,1.4,3.2
						c7.6,6.2,39.4-5.1,51.3-10.1c1.7-1.4,9.6-6.4,37.1-7.3c2.3-0.1,4.5-0.4,6.6-0.8l-2.3-5l12.6,0.8c10.3-6.3,16-17.3,18.6-23.9
						c-8.9,5.8-29.4,16.5-50.1,7.3l-4.9-2.2l5.1-1.7c0.3-0.1,29.4-9.9,36.9-35.3c-6.1,5-18.6,13.6-35.2,16.5
						c-1.7,0.3-3.4,0.6-5.2,0.8l-11.6,11.9l0.6-10.8c-7.7,0.6-15.2,0.8-22.5,0.9C393.8,265.9,386.9,266.1,380.9,266.7z"/>
				</g>
			</g>
		</g>
		<g>
			<g>
				<g>
					<path class="st1" d="M410.8,279.9c-0.8-1.7-1.8-3-3.2-3.9c-1.4-0.8-3-1.2-4.7-1.1c-3.5,0.1-7.1,1.6-10.5,3.3
						c-1.7,0.9-3.4,1.9-5,2.9c-1.6,1.1-3.4,2.2-5.2,3.1c-3.5,2-7.2,3.6-11,4.7c-1.9,0.6-3.9,1-5.8,1.2c-2,0.2-4,0.1-6-0.5
						c-1-0.3-2-0.9-2.9-1.7c-0.4-0.4-0.8-0.9-1.1-1.5c-0.3-0.5-0.6-1.3-0.6-2c-0.1-1.5,0.6-2.8,1.2-3.8c0.7-1,1.4-1.8,2.3-2.5
						c3.2-2.8,6.9-4.6,10.6-5.8c1.9-0.6,3.8-1,5.8-1.3c1-0.1,2-0.1,2.9-0.1c1,0.1,1.9,0.2,2.9,0.4c-1,0-1.9,0-2.9,0.1
						c-0.9,0.1-1.9,0.4-2.8,0.6c-1.8,0.5-3.6,1.3-5.4,2.1c-1.7,0.9-3.4,1.9-4.9,3.1c-1.5,1.2-3,2.5-4.2,3.9c-0.6,0.7-1.1,1.4-1.4,2
						c-0.2,0.3-0.2,0.6-0.3,0.8c0,0.1,0,0.1-0.1,0.1c-0.1,0-0.3,0-0.5,0c-0.1,0-0.2,0-0.3,0.1c-0.2,0.1-0.4,0.2-0.5,0.3
						c-0.4,0.3-0.5,0.6-0.3,0.8c0.4,0.3,0.5,0.7,0.9,0.9c0.6,0.6,1.4,1,2.2,1.2c1.7,0.5,3.5,0.5,5.3,0.3c1.8-0.2,3.7-0.7,5.4-1.3
						c3.6-1.2,7.1-2.9,10.4-4.9c1.7-1,3.3-2.1,5-3.2c1.7-1.1,3.4-2.2,5.2-3.2c3.6-1.9,7.3-3.7,11.5-4c2.1-0.2,4.3,0.1,6.4,1.3
						c2.1,1.1,3.7,3.2,4.7,5.3L410.8,279.9z"/>
				</g>
			</g>
		</g>
		<g>
			<g>
				<g>
					<path class="st1" d="M412.3,277.3c-0.8-1.7-1.8-3-3.2-3.9c-1.4-0.8-3-1.2-4.7-1.1c-3.5,0.1-7.1,1.6-10.5,3.3
						c-1.7,0.9-3.4,1.9-5,2.9c-1.6,1.1-3.4,2.2-5.2,3.1c-3.5,2-7.2,3.6-11,4.7c-1.9,0.6-3.9,1-5.8,1.2c-2,0.2-4,0.1-6-0.5
						c-1-0.3-2-0.9-2.9-1.7c-0.4-0.4-0.8-0.9-1.1-1.5c-0.3-0.5-0.6-1.3-0.6-2c-0.1-1.5,0.6-2.8,1.2-3.8c0.7-1,1.4-1.8,2.3-2.5
						c3.2-2.8,6.9-4.6,10.6-5.8c1.9-0.6,3.8-1,5.8-1.2c1-0.1,2-0.1,2.9-0.1c1,0.1,1.9,0.2,2.9,0.4c-1-0.1-1.9,0-2.9,0.1
						c-0.9,0.1-1.9,0.4-2.8,0.6c-1.8,0.5-3.6,1.3-5.4,2.1c-1.7,0.9-3.4,1.9-4.9,3.1c-1.5,1.2-3,2.5-4.2,3.9c-0.6,0.7-1.1,1.4-1.4,2
						c-0.2,0.3-0.2,0.6-0.3,0.8c0,0.1,0,0.1-0.1,0.1c-0.1,0-0.3,0-0.5,0c-0.1,0-0.2,0-0.3,0.1c-0.2,0.1-0.4,0.2-0.5,0.3
						c-0.4,0.3-0.5,0.6-0.3,0.8c0.4,0.3,0.5,0.7,0.9,0.9c0.6,0.6,1.4,1,2.2,1.2c1.7,0.5,3.5,0.5,5.3,0.3c1.8-0.2,3.7-0.7,5.4-1.3
						c3.6-1.2,7.1-2.9,10.4-4.9c1.7-1,3.3-2.1,5-3.2c1.7-1.1,3.4-2.2,5.2-3.2c3.6-1.9,7.3-3.7,11.5-4c2.1-0.2,4.3,0.1,6.4,1.3
						c2.1,1.1,3.7,3.2,4.7,5.3L412.3,277.3z"/>
				</g>
			</g>
		</g>
		<g>
			<g>
				<g>
					<g>
						<path class="st1" d="M367.6,287.5c0.3-0.6,0.6-0.9,0.9-1.4c0.3-0.4,0.7-0.7,1-1.1c0.7-0.6,1.4-1.2,2.2-1.6
							c0.8-0.4,1.5-0.8,2.3-1c0.8-0.3,1.6-0.4,2.4-0.5c-0.7,0.4-1.4,0.8-2,1.4c-0.6,0.5-1.2,1.1-1.7,1.7c-0.5,0.6-0.9,1.3-1.3,2
							c-0.2,0.3-0.3,0.7-0.5,1.1c-0.1,0.2-0.1,0.4-0.2,0.5c0,0.2-0.1,0.4-0.1,0.4L367.6,287.5z"/>
					</g>
				</g>
			</g>
			<g>
				<g>
					<g>
						<path class="st1" d="M364,287.6c0.1-0.3,0.2-0.5,0.3-0.7c0.1-0.2,0.2-0.4,0.3-0.5c0.2-0.3,0.4-0.7,0.6-1
							c0.4-0.6,0.9-1.2,1.4-1.7c1-1,2.1-1.8,3.2-2.4c1.1-0.6,2.3-1.1,3.5-1.4c0.6-0.2,1.2-0.3,1.8-0.4l1.8-0.2l-1.7,0.7
							c-0.5,0.3-1.1,0.5-1.6,0.9c-1,0.6-2,1.3-2.9,2.2c-0.9,0.8-1.6,1.8-2.2,2.8c-0.3,0.5-0.6,1-0.8,1.6c-0.1,0.3-0.2,0.5-0.3,0.8
							c0,0.1-0.1,0.3-0.1,0.4c0,0.1-0.1,0.3-0.1,0.3L364,287.6z"/>
					</g>
				</g>
			</g>
			<g>
				<g>
					<g>
						<path class="st1" d="M360.9,286.4c0.1-0.4,0.2-0.6,0.4-0.8c0.1-0.2,0.3-0.4,0.4-0.7c0.3-0.4,0.5-0.8,0.8-1.2
							c0.6-0.7,1.2-1.4,1.8-2c1.3-1.2,2.7-2.1,4.2-2.8c1.4-0.7,3-1.2,4.4-1.6c0.8-0.2,1.5-0.3,2.3-0.4l2.3-0.2l-2.2,0.7
							c-0.7,0.3-1.4,0.6-2.1,0.9c-1.4,0.7-2.7,1.4-3.9,2.4c-1.2,0.9-2.3,2-3.2,3.2c-0.4,0.6-0.9,1.2-1.2,1.9c-0.2,0.3-0.3,0.7-0.4,1
							c-0.1,0.2-0.1,0.3-0.2,0.5c0,0.1-0.1,0.4-0.1,0.4L360.9,286.4z"/>
					</g>
				</g>
			</g>
			<g>
				<g>
					<g>
						<path class="st1" d="M357.7,285.2c0.1-0.5,0.2-0.7,0.4-1c0.1-0.3,0.3-0.5,0.5-0.8c0.3-0.5,0.7-1,1-1.4
							c0.7-0.9,1.5-1.6,2.3-2.3c1.6-1.4,3.4-2.4,5.1-3.1c1.8-0.8,3.6-1.3,5.4-1.7l2.7-0.5l2.8-0.3l-2.7,0.8l-2.6,1
							c-1.7,0.8-3.4,1.6-4.9,2.6c-1.5,1-3,2.2-4.2,3.6c-0.6,0.7-1.1,1.4-1.6,2.2c-0.2,0.4-0.4,0.8-0.6,1.2c-0.1,0.2-0.2,0.4-0.2,0.6
							c-0.1,0.2-0.1,0.4-0.1,0.5L357.7,285.2z"/>
					</g>
				</g>
			</g>
		</g>
		<g>
			<g>
				<g>
					<path class="st1" d="M416.1,307.1c1.3-0.5,2.4-0.8,3.5-1.1c1.2-0.3,2.3-0.6,3.5-0.8c2.3-0.4,4.6-0.7,7-0.8
						c2.3-0.1,4.6-0.2,6.9,0c1.2,0,2.3,0.2,3.4,0.2c1.1,0.1,2.3,0.3,3.4,0.4c-1.1,0-2.3,0.1-3.4,0.1c-1.1,0.1-2.3,0.1-3.4,0.3
						c-2.3,0.2-4.5,0.6-6.8,1c-2.2,0.5-4.4,1.1-6.6,1.8c-1.1,0.4-2.1,0.8-3.2,1.2c-1,0.4-2.1,0.9-3,1.4l-0.7-1.9L416.1,307.1z"/>
				</g>
			</g>
			<g>
				<g>
					<path class="st1" d="M415.9,301.2c1.1-0.4,2.1-0.6,3.1-0.8c1-0.2,2-0.4,3-0.5c2-0.3,4-0.4,6-0.5c1.8-0.1,3.5-0.1,5.3,0
						c0.9,0,1.8,0.1,2.6,0.2c0.9,0.1,1.7,0.2,2.6,0.3c-0.5,0.1-1,0.1-1.5,0.3c-0.3,0.1-0.6,0.2-0.9,0.2c-0.4,0-0.8,0-1.2,0.1
						c-2.1,0.1-4.1,0.4-6.2,0.8c-0.8,0.2-1.6,0.3-2.4,0.5c-1.2,0.3-2.5,0.6-3.7,1c-0.4,0.1-0.7,0.2-1.1,0.4
						c-0.6,0.2-1.2,0.4-1.8,0.7c-0.9,0.4-1.9,0.8-2.7,1.2l-0.6-1.9L415.9,301.2z"/>
				</g>
			</g>
			<g>
				<g>
					<path class="st1" d="M415.6,295.2c0.9-0.2,1.8-0.4,2.6-0.5c0.8-0.1,1.7-0.2,2.5-0.3c1.7-0.2,3.4-0.2,5.1-0.2
						c1.2,0,2.5,0,3.7,0.1c0.6,0,1.2,0.1,1.8,0.2c0.6,0.1,1.2,0.2,1.8,0.2c0.2,0.1,0.4,0.2,0.5,0.4c0.1,0.1,0.2,0.2,0.3,0.4
						c-0.4,0-0.8,0-1.1,0c-1.9,0-3.8,0.2-5.6,0.5c-0.7,0.1-1.4,0.3-2.2,0.4c-1.1,0.2-2.2,0.5-3.3,0.8c-0.3,0.1-0.7,0.2-1,0.3
						c-0.6,0.2-1.1,0.4-1.7,0.5c-0.9,0.3-1.7,0.6-2.5,1l-0.4-1.9L415.6,295.2z"/>
				</g>
			</g>
			<g>
				<g>
					<path class="st1" d="M415.4,289.3c1.4-0.1,2.8-0.2,4.2-0.2c1.4,0,2.8,0,4.1,0.1c1.4,0.1,2.7,0.2,4.1,0.5c1.4,0.2,2.7,0.6,4,1
						c-2.7-0.2-5.4,0.1-8,0.6c-1.3,0.3-2.6,0.6-3.9,0.9c-1.3,0.3-2.6,0.7-3.8,1.2l-0.3-2L415.4,289.3z"/>
				</g>
			</g>
		</g>
		<g>
			<g>
				<g>
					<path class="st1" d="M359.3,304.3l-4.8-14.8c0,0,3.1,4.2,14.2,3c0,0-5.7,2.9-10,1.9c0,0,4.2,2.7,11.4,1.1c0,0-4.4,3.4-10.2,2.5
						c0,0,4.8,1.7,11.2,0.4c0,0-5.8,3.4-9.4,3.9C358,302.9,359.3,304.3,359.3,304.3z"/>
				</g>
			</g>
		</g>
		<g>
			<g>
				<polygon class="st1" points="368.9,287.5 356.5,282.9 355.6,284.5 357.1,287.3 360.8,289 365.2,288.6 				"/>
			</g>
		</g>
	</g>
	<g>
		<g>
			<g>
				<path class="st1" d="M441.1,168.4c-16.4,0-30.9,11.1-35.3,26.7l-91.1,1.7l-41.7-96.4c8.4-7,13.3-17.3,13.3-28.2
					c0-20.2-16.5-36.7-36.7-36.7C229.5,35.5,213,52,213,72.2c0,10.9,4.9,21.2,13.3,28.2l-41.7,96.4l-90.6-1.7
					c-4.4-15.6-18.9-26.7-35.3-26.7c-20.2,0-36.7,16.5-36.7,36.7s16.5,36.7,36.7,36.7c7.6,0,15.1-2.4,21.3-6.8l71.6,56.6l-34,101.3
					C97.9,393.4,82,409.6,82,429.5c0,20.2,16.5,36.7,36.7,36.7c20.2,0,36.7-16.5,36.7-36.7c0-2.5-0.3-5-0.8-7.6l95.2-64.9l96.3,65.7
					c-0.4,2.3-0.7,4.6-0.7,6.8c0,20.2,16.5,36.7,36.7,36.7c20.2,0,36.7-16.5,36.7-36.7s-16.5-36.7-36.7-36.7c-0.1,0-0.2,0-0.3,0
					l-34-101.3l71.8-56.8c6.2,4.5,13.8,7,21.5,7c20.2,0,36.7-16.5,36.7-36.7S461.3,168.4,441.1,168.4z"/>
			</g>
		</g>
		<g>
			<g>
				<g>
					<g>
						<g>
							<polygon class="st0" points="455.4,199.6 311.3,202.3 249.7,59.9 188.2,202.3 44,199.6 158,289.7 104.3,449.7 249.7,350.5 
								395.2,449.7 341.4,289.7 							"/>
						</g>
					</g>
				</g>
			</g>
			<g>
				<g>
					<g>
						<g>
							<path class="st1" d="M400.2,456.3L249.7,353.7L99.3,456.3l55.7-165.7L36.3,196.8l150.2,2.8l63.3-146.3L313,199.6l150.2-2.8
								l-118.7,93.8L400.2,456.3z M249.7,347.3l1.5,1l138.9,94.8l-51.8-154.4l109.3-86.4l-138.1,2.6L249.7,66.6l-59.8,138.4
								l-138.1-2.6l109.3,86.4l-51.8,154.4L249.7,347.3z"/>
						</g>
					</g>
				</g>
			</g>
			<g>
				<g>
					<g>
						<g>
							<path class="st1" d="M125,422.3l45.8-136.5l-94.5-74.7l119,2.2l54.4-125.8l54.4,125.8l119-2.2l-94.5,74.7l45.8,136.5
								l-124.7-85.1L125,422.3z M249.7,330.8l1.5,1l113.2,77.2l-42-125.1l85.2-67.3l-106.9,2l-51-117.9l-51,117.9l-106.9-2L177,284
								l-42,125.1L249.7,330.8z"/>
						</g>
					</g>
				</g>
			</g>
			<g>
				<g>
					<g>
						<g>
							<path class="st1" d="M147.9,392.1L185,281.6l-73.1-57.8l91.3,1.7l46.5-107.6l46.5,107.6l91.3-1.7l-73.1,57.8l37.1,110.4
								l-83.3-56.8l-36-0.8L147.9,392.1z M230.7,329.2L270,330l71.6,48.8l-33.3-99.1l63.7-50.3l-79.2,1.5l-43.1-99.7l-43.1,99.7
								l-79.2-1.5l63.7,50.3l-33.3,99.1L230.7,329.2z"/>
						</g>
					</g>
				</g>
			</g>
			<g>
				<g>
					<g>
						<g>
							<g>
								
									<ellipse transform="matrix(0.7071 -0.7071 0.7071 0.7071 -116.6397 255.1877)" class="st0" cx="249.7" cy="268.4" rx="73.4" ry="73.4"/>
							</g>
						</g>
					</g>
				</g>
				<g>
					<g>
						<g>
							<g>
								<path class="st1" d="M249.7,344.5c-42,0-76.1-34.1-76.1-76.1c0-42,34.1-76.1,76.1-76.1c42,0,76.1,34.1,76.1,76.1
									C325.8,310.3,291.7,344.5,249.7,344.5z M249.7,197.6c-39,0-70.8,31.8-70.8,70.8c0,39,31.8,70.8,70.8,70.8
									c39,0,70.8-31.8,70.8-70.8C320.5,229.3,288.8,197.6,249.7,197.6z"/>
							</g>
						</g>
					</g>
				</g>
				<g>
					<g>
						<g>
							<g>
								<path class="st1" d="M249.7,326c-22.9,0-43.6-13.6-52.8-34.5l-1.6-3.7h108.9l-1.6,3.7C293.3,312.5,272.6,326,249.7,326z
									 M203.5,293.1c9.1,16.9,26.8,27.7,46.2,27.7s37.1-10.7,46.2-27.7H203.5z"/>
							</g>
						</g>
					</g>
				</g>
				<g>
					<g>
						<g>
							<g>
								<path class="st1" d="M304.2,249H195.3l1.6-3.7c9.2-21,29.9-34.5,52.8-34.5s43.6,13.6,52.8,34.5L304.2,249z M203.5,243.7
									h92.4c-9.1-16.9-26.8-27.7-46.2-27.7S212.6,226.8,203.5,243.7z"/>
							</g>
						</g>
					</g>
				</g>
				<g>
					<g>
						<g>
							<g>
								<g>
									<path class="st1" d="M321.7,293.1h-144l-0.6-1.8c-2.3-7.4-3.5-15-3.5-22.8c0-7.8,1.2-15.5,3.5-22.8l0.6-1.8h144l0.6,1.8
										c2.3,7.4,3.5,15,3.5,22.8s-1.2,15.5-3.5,22.8L321.7,293.1z M181.6,287.8h136.2c1.8-6.3,2.7-12.8,2.7-19.4
										s-0.9-13.1-2.7-19.4H181.6c-1.8,6.3-2.7,12.8-2.7,19.4C178.9,275,179.8,281.5,181.6,287.8z"/>
								</g>
							</g>
						</g>
					</g>
				</g>
				<g>
					<g>
						<g>
							<g>
								<g>
									<path class="st1" d="M188.7,274.8c-3.5,0-6.4-2.9-6.4-6.4c0-3.5,2.9-6.4,6.4-6.4c3.5,0,6.4,2.9,6.4,6.4
										C195.2,271.9,192.3,274.8,188.7,274.8z M188.7,265c-1.9,0-3.4,1.5-3.4,3.4s1.5,3.4,3.4,3.4c1.9,0,3.4-1.5,3.4-3.4
										S190.6,265,188.7,265z"/>
								</g>
							</g>
						</g>
					</g>
					<g>
						<g>
							<g>
								<g>
									<path class="st1" d="M303.5,276.3c-4.4,0-7.9-3.6-7.9-7.9s3.6-7.9,7.9-7.9s7.9,3.6,7.9,7.9S307.8,276.3,303.5,276.3z
										 M303.5,264.2c-2.3,0-4.2,1.9-4.2,4.2c0,2.3,1.9,4.2,4.2,4.2c2.3,0,4.2-1.9,4.2-4.2C307.7,266.1,305.8,264.2,303.5,264.2z"
										/>
								</g>
							</g>
						</g>
					</g>
				</g>
				<g>
					<g>
						<g>
							<g>
								<g>
									<path class="st1" d="M229.2,315.5c-1.6,0-2.9-0.1-4-0.4l0,0c-6.3-1.5-11.3-5.6-12.9-10.7c-1-3.3-0.5-6.4,1.5-8.7
										c2.5-2.8,6.5-3.9,10.2-2.8c3.1,0.9,5.3,3.1,5.6,5.8c0.2,1.3,0.1,2.4-0.2,3.4c2-0.7,3.5-1.5,3.8-2.3
										c0.2-0.5-0.4-1.1-0.8-1.5l-0.5-0.5l0.1-0.7c0.3-2,2.3-5.8,8.2-5.9c0,0,0,0,0.1,0c3.1,0,5.4,1.7,6.1,4.5
										c0.3,1.1,0.3,2.3,0.1,3.3c5.4-2.3,14.5-6,20.2-7.4c5.7-1.3,11-0.7,14.6,1.8c2.5,1.7,4,4.2,4.4,7.2c0.5,3.9-1.4,7.8-5,10.2
										c-3.9,2.6-8.7,2.8-12.6,0.5c-1.8-1.1-2.9-3.5-3.1-5.5c-2,0.7-5.1,1.9-9.5,3.8C248.9,312.7,236.8,315.5,229.2,315.5z
										 M225.9,312.2c5.1,1.2,20.3-1.5,28.6-5.2c4.9-2.1,8.2-3.4,10.2-4.1c0.8-0.3,1.6-0.1,2.3,0.3c0.7,0.5,1.1,1.3,1.1,2.1
										c0,1.3,0.8,2.9,1.6,3.4c3.5,2,7.2,1.1,9.5-0.4c2.7-1.8,4.1-4.6,3.7-7.3c-0.3-2.2-1.4-4-3.2-5.2c-2.9-2-7.4-2.5-12.2-1.4
										c-8.2,1.9-23.9,9-24.1,9.1L242,301c1.3-0.7,2-2.9,1.6-4.6c-0.3-1.1-1.1-2.3-3.3-2.3c0,0,0,0,0,0c-3.6,0-4.8,1.8-5.2,2.7
										c1.2,1.6,1.2,2.9,0.9,3.8c-1.3,3.8-9.4,5.2-11,5.4l-0.5-2.9c0.4-0.1,2.6-0.8,2.1-4.1c-0.2-1.5-1.6-2.8-3.6-3.4
										c-2-0.6-5.1-0.4-7.2,2c-1.3,1.5-1.6,3.6-0.9,5.9C216.1,306.7,219.5,310.7,225.9,312.2L225.9,312.2z"/>
								</g>
							</g>
						</g>
					</g>
					<g>
						<g>
							<g>
								<g>
									<path class="st1" d="M257.7,323.6c-0.8,0-1.4-0.2-1.6-0.3l-0.8-0.4l0-0.9c0-0.3-0.3-2.7-3.1-3.1c-0.8-0.1-1.9,0.3-3.2,0.7
										c-4.4,1.5-11,3.8-22-4.6l1.5-2.5c0.1,0,7.1,3.4,14.7,1.7c2.9-0.6,5.5-1.6,8.1-2.5c4.6-1.7,8.5-3.1,12.4-1.9
										c2.5,0.8,4,2.6,4.2,4.9c0.2,3-2,6.3-4.9,7.5C260.4,323.4,258.8,323.6,257.7,323.6z M251.8,316c0.3,0,0.5,0,0.8,0.1
										c3.4,0.5,4.9,2.8,5.4,4.6c0.7,0,1.9-0.2,3.6-1c1.8-0.8,3.2-2.9,3.1-4.7c-0.1-1.1-0.7-1.9-2.1-2.3
										c-2.9-0.9-6.3,0.3-10.5,1.9c-2.5,0.9-5.3,1.9-8.4,2.6c-1.9,0.4-3.7,0.6-5.4,0.5c4.2,1,7.2,0,9.6-0.9
										C249.3,316.5,250.5,316,251.8,316z"/>
								</g>
							</g>
						</g>
					</g>
					<g>
						<g>
							<g>
								<g>
									<path class="st1" d="M246.6,302.2c-2.2,1.1-4.5,2.1-6.8,2.9c-2.3,0.8-4.7,1.5-7.2,1.9c-2.5,0.4-5,0.6-7.5,0.2
										c-0.3,0-0.6-0.1-0.9-0.1l-0.9-0.2c-0.6-0.1-1.2-0.4-1.8-0.7l-0.4-0.2c-0.1-0.1-0.3-0.2-0.4-0.3c-0.3-0.2-0.5-0.4-0.8-0.6
										c-0.3-0.2-0.5-0.5-0.7-0.7c-0.2-0.2-0.4-0.5-0.6-0.8c0.6,0.2,1.2,0.4,1.7,0.6c0.3,0.1,0.6,0.2,0.8,0.2
										c0.1,0,0.3,0.1,0.4,0.1l0.4,0.1c0.6,0.1,1.1,0.3,1.7,0.3l0.8,0.1c0.3,0,0.6,0,0.9,0c2.3,0.1,4.6-0.2,6.9-0.7
										c2.3-0.5,4.5-1.2,6.7-2.1c2.2-0.8,4.4-1.8,6.5-2.8L246.6,302.2z"/>
								</g>
							</g>
						</g>
					</g>
					<g>
						<g>
							<g>
								<g>
									<path class="st1" d="M219,303.8c1.1,0.4,5.1-0.2,6.5-1.1c1.3-0.9,2.1-1.4,2.1-1.4l1.5,2.9l-0.8,1.6l-5.5-0.1L219,303.8z"/>
								</g>
							</g>
						</g>
					</g>
					<g>
						<g>
							<g>
								<g>
									<path class="st1" d="M231.4,304.7c1.9-0.5,3.9-1.4,5.6-2.6c0.8-0.6,1.6-1.4,2.3-2.2c0.7-0.8,1.2-1.8,1.5-2.9
										c0.4,1.1,0.2,2.5-0.3,3.6c-0.5,1.2-1.3,2.2-2.1,3c-0.9,0.9-1.9,1.6-3,2.2c-1.1,0.6-2.3,1-3.6,1.2L231.4,304.7z"/>
								</g>
							</g>
						</g>
					</g>
					<g>
						<g>
							<g>
								<g>
									<path class="st1" d="M227,310.2c1.8,0.3,3.7,0.2,5.5,0.1c1.8-0.2,3.6-0.5,5.4-0.9c3.6-0.8,7-2,10.4-3.2
										c3.5-1.3,6.9-2.6,10.4-3.8c1.7-0.6,3.5-1.2,5.2-1.8c0.9-0.3,1.8-0.6,2.7-0.8c0.9-0.2,1.8-0.5,2.7-0.5
										c-0.9,0.2-1.8,0.5-2.6,0.9c-0.8,0.3-1.7,0.7-2.5,1.1l-5.1,2.2c-3.4,1.5-6.8,2.8-10.3,4.1c-3.5,1.3-7.1,2.4-10.7,3
										c-1.8,0.3-3.7,0.5-5.6,0.5C230.7,310.9,228.8,310.8,227,310.2z"/>
								</g>
							</g>
						</g>
					</g>
					<g>
						<g>
							<g>
								<g>
									<path class="st1" d="M260.7,304.5c1.1-0.5,2.2-1,3.3-1.5c1.1-0.5,2.2-0.9,3.4-1.3c1.2-0.4,2.4-0.8,3.7-1
										c1.4-0.1,2.7,0.2,3.8,0.7c-1.3,0.2-2.4,0.4-3.4,0.8c-1,0.4-2,1-3.1,1.6c-2.1,1.2-4.2,2.4-6.5,3.3L260.7,304.5z"/>
								</g>
							</g>
						</g>
					</g>
					<g>
						<g>
							<g>
								<g>
									<path class="st1" d="M271.4,302.3c-1.3,0.6-3.5,2.7-3,4.6s-1.7,0.4-1.7,0.4l-0.8-2.8l1.9-1.6l1.9-0.8L271.4,302.3z"/>
								</g>
							</g>
						</g>
					</g>
					<g>
						<g>
							<g>
								<g>
									<path class="st1" d="M247.7,317c1.1-0.4,2.2-0.8,3.4-1c1.1-0.3,2.3-0.6,3.5-0.7c1.2-0.2,2.4-0.3,3.6-0.3
										c1.2,0,2.5,0.2,3.5,0.8c-1.2-0.1-2.3,0.2-3.4,0.4c-1.1,0.3-2.2,0.6-3.2,1c-1.1,0.4-2.1,0.8-3.2,1.2l-3.1,1.3L247.7,317z"/>
								</g>
							</g>
						</g>
					</g>
					<g>
						<g>
							<g>
								<g>
									<path class="st1" d="M270.1,306.3c0.7,0.9,1.7,1.3,2.7,1.3c1,0.1,2-0.1,3-0.4c0.5-0.1,1-0.3,1.4-0.5
										c0.2-0.1,0.4-0.2,0.7-0.4c0.2-0.1,0.4-0.3,0.6-0.4c0.8-0.6,1.5-1.4,2.1-2.3c-0.1,1.1-0.7,2.2-1.5,3c-0.8,0.8-1.9,1.4-3,1.7
										c-1.1,0.3-2.3,0.5-3.4,0.2C271.5,308.2,270.4,307.3,270.1,306.3z"/>
								</g>
							</g>
						</g>
					</g>
					<g>
						<g>
							<g>
								<g>
									<path class="st1" d="M216.5,299.2c0.6-0.7,1.4-1.2,2.2-1.6c0.8-0.4,1.8-0.6,2.8-0.6c0.5,0,1,0.1,1.5,0.3
										c0.5,0.2,0.9,0.4,1.4,0.7c0.4,0.4,0.7,0.8,0.8,1.4c0.1,0.5,0.1,1.1-0.2,1.5c-0.4-0.9-0.9-1.4-1.5-1.7
										c-0.6-0.4-1.3-0.7-2.1-0.8c-0.8-0.1-1.6-0.1-2.4,0.1C218.2,298.6,217.4,298.8,216.5,299.2z"/>
								</g>
							</g>
						</g>
					</g>
				</g>
				<g>
					<g>
						<g>
							<g>
								<g>
									<path class="st1" d="M225,246.6c-3.5,0-6.7-0.8-9.1-2.5c-2.5-1.7-4.1-4.3-4.5-7.3c-0.5-3.9,1.4-7.9,5-10.3
										c3.9-2.6,8.8-2.8,12.7-0.6c1.9,1.1,2.9,3.6,3.1,5.5c2-0.7,5.2-1.9,9.7-3.9c8.3-3.6,24.5-6.9,30.8-5.4l0,0
										c6.4,1.5,11.4,5.7,13.1,10.9c1.1,3.3,0.5,6.5-1.5,8.8c-2.5,2.9-6.5,4-10.3,2.9c-3.1-0.9-5.3-3.2-5.7-5.9
										c-0.2-1.3-0.1-2.5,0.2-3.4c-2,0.7-3.6,1.5-3.9,2.3c-0.2,0.5,0.4,1.2,0.8,1.5l0.5,0.5l-0.1,0.7c-0.3,2-2.3,5.9-8.3,6
										c-3.2,0-5.5-1.7-6.3-4.6c-0.3-1.1-0.3-2.3-0.1-3.4c-5.5,2.3-14.7,6.1-20.5,7.5C228.7,246.3,226.8,246.6,225,246.6z
										 M223.4,227.3c-2,0-3.9,0.7-5.3,1.6c-2.7,1.8-4.1,4.7-3.8,7.4c0.3,2.3,1.4,4,3.2,5.3c2.9,2,7.5,2.5,12.4,1.4
										c8.3-1.9,24.2-9.2,24.4-9.2l1.3,2.7c-1.3,0.7-2.1,2.9-1.6,4.7c0.3,1.1,1.1,2.3,3.3,2.3c0,0,0,0,0,0c3.7,0,4.9-1.8,5.3-2.8
										c-1.3-1.6-1.2-3-0.9-3.9c1.3-3.9,9.5-5.2,11.1-5.5l0.5,2.9c-0.4,0.1-2.6,0.8-2.2,4.1c0.2,1.6,1.6,2.9,3.6,3.5
										c2,0.6,5.2,0.4,7.2-2c1.3-1.5,1.6-3.7,0.9-5.9c-1-3.3-4.5-7.3-10.9-8.9l0,0c-5.1-1.2-20.5,1.5-28.9,5.2
										c-4.9,2.2-8.3,3.4-10.3,4.1c-0.8,0.3-1.7,0.1-2.4-0.3c-0.7-0.5-1.1-1.3-1.1-2.2c0-1.3-0.8-2.9-1.6-3.4
										C226.2,227.6,224.8,227.3,223.4,227.3z"/>
								</g>
							</g>
						</g>
					</g>
					<g>
						<g>
							<g>
								<g>
									<path class="st1" d="M237,227.8c-1,0-2-0.1-3-0.4c-2.6-0.8-4.1-2.6-4.2-5c-0.2-3,2-6.4,5-7.6c4.2-1.8,6.2-1.2,6.7-1
										l0.9,0.4l0,0.9c0,0.3,0.3,2.7,3.2,3.2c0.8,0.1,1.9-0.3,3.3-0.7c4.5-1.5,11.2-3.8,22.3,4.6l-1.6,2.5
										c-0.1,0-7.1-3.5-14.8-1.8c-3,0.7-5.6,1.6-8.2,2.6C243.1,226.7,240,227.8,237,227.8z M239.6,216.5c-0.7,0-1.9,0.3-3.7,1
										c-1.8,0.8-3.3,2.9-3.2,4.7c0.1,1.1,0.8,1.9,2.1,2.3c3,0.9,6.4-0.3,10.7-1.9c2.5-0.9,5.4-2,8.5-2.7c1.9-0.4,3.7-0.6,5.5-0.5
										c-4.2-1-7.3,0-9.8,0.9c-1.7,0.6-3.2,1.1-4.7,0.8C241.7,220.6,240.2,218.3,239.6,216.5z"/>
								</g>
							</g>
						</g>
					</g>
					<g>
						<g>
							<g>
								<g>
									<path class="st1" d="M251.1,235.2c2.2-1.1,4.5-2.1,6.9-3c2.4-0.8,4.8-1.5,7.3-1.9c2.5-0.4,5.1-0.6,7.6-0.2
										c0.3,0,0.6,0.1,1,0.1l1,0.2c0.6,0.1,1.2,0.4,1.8,0.7l0.4,0.2c0.1,0.1,0.3,0.2,0.4,0.3c0.3,0.2,0.5,0.4,0.8,0.6
										c0.3,0.2,0.5,0.5,0.7,0.7c0.2,0.2,0.4,0.5,0.6,0.8c-0.7-0.2-1.2-0.4-1.8-0.6c-0.3-0.1-0.6-0.2-0.9-0.2
										c-0.1,0-0.3-0.1-0.4-0.1l-0.4-0.1c-0.6-0.1-1.1-0.3-1.7-0.3l-0.8-0.1c-0.3,0-0.6,0-0.9,0c-2.3-0.1-4.6,0.2-6.9,0.8
										c-2.3,0.5-4.6,1.3-6.8,2.1c-2.2,0.8-4.4,1.8-6.6,2.8L251.1,235.2z"/>
								</g>
							</g>
						</g>
					</g>
					<g>
						<g>
							<g>
								<g>
									<path class="st1" d="M279.1,233.5c-1.1-0.4-5.2,0.2-6.6,1.1c-1.4,0.9-2.1,1.4-2.1,1.4l-1.5-2.9l0.8-1.6l5.5,0.1
										L279.1,233.5z"/>
								</g>
							</g>
						</g>
					</g>
					<g>
						<g>
							<g>
								<g>
									<path class="st1" d="M266.5,232.6c-2,0.5-4,1.4-5.7,2.7c-0.9,0.6-1.6,1.4-2.3,2.2c-0.7,0.8-1.2,1.8-1.5,3
										c-0.4-1.2-0.2-2.5,0.3-3.7c0.5-1.2,1.3-2.2,2.2-3.1c0.9-0.9,1.9-1.6,3-2.2c1.1-0.6,2.3-1,3.6-1.2L266.5,232.6z"/>
								</g>
							</g>
						</g>
					</g>
					<g>
						<g>
							<g>
								<g>
									<path class="st1" d="M270.9,227.1c-1.8-0.3-3.7-0.2-5.5-0.1c-1.8,0.2-3.7,0.5-5.5,0.9c-3.6,0.8-7.1,2-10.6,3.3
										c-3.5,1.3-7,2.6-10.5,3.9c-1.8,0.6-3.5,1.2-5.3,1.8c-0.9,0.3-1.8,0.6-2.7,0.8c-0.9,0.2-1.8,0.5-2.8,0.5
										c0.9-0.2,1.8-0.5,2.6-0.9c0.9-0.4,1.7-0.7,2.6-1.1l5.1-2.2c3.4-1.5,6.9-2.9,10.4-4.2c3.5-1.3,7.1-2.4,10.9-3
										c1.9-0.3,3.8-0.5,5.6-0.5C267.2,226.4,269.1,226.5,270.9,227.1z"/>
								</g>
							</g>
						</g>
					</g>
					<g>
						<g>
							<g>
								<g>
									<path class="st1" d="M236.8,232.9c-1.1,0.5-2.2,1-3.3,1.5c-1.1,0.5-2.3,0.9-3.4,1.3c-1.2,0.4-2.4,0.9-3.8,1
										c-1.4,0.1-2.7-0.2-3.8-0.7c1.3-0.2,2.5-0.4,3.5-0.9c1-0.4,2-1.1,3.1-1.6c2.1-1.2,4.3-2.4,6.6-3.3L236.8,232.9z"/>
								</g>
							</g>
						</g>
					</g>
					<g>
						<g>
							<g>
								<g>
									<path class="st1" d="M226,235.1c1.3-0.6,3.5-2.7,3.1-4.7c-0.4-1.9,1.7-0.4,1.7-0.4l0.8,2.9l-1.9,1.6l-2,0.9L226,235.1z"/>
								</g>
							</g>
						</g>
					</g>
					<g>
						<g>
							<g>
								<g>
									<path class="st1" d="M250,220.2c-1.1,0.4-2.3,0.8-3.4,1.1c-1.2,0.3-2.3,0.6-3.5,0.7c-1.2,0.2-2.4,0.3-3.6,0.3
										c-1.2,0-2.5-0.2-3.5-0.8c1.2,0.1,2.3-0.2,3.4-0.4c1.1-0.3,2.2-0.6,3.3-1c1.1-0.4,2.1-0.8,3.2-1.2l3.2-1.4L250,220.2z"/>
								</g>
							</g>
						</g>
					</g>
					<g>
						<g>
							<g>
								<g>
									<path class="st1" d="M227.3,231.1c-0.7-0.9-1.7-1.3-2.7-1.4c-1-0.1-2,0.1-3,0.4c-0.5,0.1-1,0.3-1.4,0.6
										c-0.2,0.1-0.4,0.2-0.7,0.4c-0.2,0.1-0.4,0.3-0.6,0.4c-0.8,0.6-1.5,1.4-2.1,2.4c0.1-1.1,0.7-2.2,1.5-3
										c0.8-0.9,1.9-1.4,3-1.7c1.1-0.3,2.3-0.5,3.5-0.2C225.9,229.1,227,230,227.3,231.1z"/>
								</g>
							</g>
						</g>
					</g>
					<g>
						<g>
							<g>
								<g>
									<path class="st1" d="M281.6,238.3c-0.6,0.7-1.4,1.2-2.2,1.6c-0.9,0.4-1.8,0.6-2.8,0.6c-0.5,0-1-0.1-1.5-0.3
										c-0.5-0.2-1-0.4-1.4-0.8c-0.4-0.4-0.7-0.8-0.8-1.4c-0.1-0.5-0.1-1.1,0.2-1.5c0.4,0.9,0.9,1.4,1.5,1.8
										c0.6,0.4,1.3,0.7,2.1,0.8c0.8,0.1,1.6,0.1,2.4-0.1C279.9,238.8,280.7,238.6,281.6,238.3z"/>
								</g>
							</g>
						</g>
					</g>
				</g>
			</g>
			<g>
				<g>
					<g>
						<g>
							<g>
								<g>
									<polygon class="st1" points="247.1,159.5 249.7,136.7 252.4,159.5 									"/>
								</g>
							</g>
						</g>
					</g>
				</g>
				<g>
					<g>
						<g>
							<g>
								<g>
									<g>
										<polygon class="st1" points="249.7,164.6 238.6,146.5 243.1,143.7 249.7,154.5 256.4,143.7 260.9,146.5 										"/>
									</g>
								</g>
							</g>
						</g>
					</g>
					<g>
						<g>
							<g>
								<g>
									<g>
										<g>
											<path class="st1" d="M237.1,197c-0.8,0-1.6-0.1-2.4-0.3c-2.8-0.6-5.1-2.5-6.6-5.4c-3-5.9-2.6-15.6-0.3-21l9.1-21.1
												l1.9,2.7c0.5,0.7,11.7,16.2,12.5,25.8c0.5,6.1-2,12.4-6.2,16.1C242.7,196,240,197,237.1,197z M237.8,156.9l-6.5,15
												c-1.9,4.5-2.3,13,0.1,17.8c1,1.9,2.3,3.1,4,3.4c3.2,0.7,5.7-0.8,7.2-2.1c3.3-2.9,5.3-8.1,5-13
												C247.1,171.7,241,161.7,237.8,156.9z"/>
										</g>
									</g>
								</g>
							</g>
						</g>
						<g>
							<g>
								<g>
									<g>
										<g>
											<path class="st1" d="M239.7,182l-3.7-1.7c-0.3-0.1-6.2-2.9-8.2-8.5l3.6-1.3c0.6,1.6,1.7,2.9,2.8,4
												c-1-9.5,1.3-21.2,1.4-21.8l3.7,0.7c0,0.2-3.1,15.8-0.7,24.7L239.7,182z"/>
										</g>
									</g>
								</g>
							</g>
						</g>
						<g>
							<g>
								<g>
									<g>
										<g>
											<path class="st1" d="M231.9,190.5c0.2,0.1,0.6,0.3,1,0.4c0.5,0.1,1,0.2,1.5,0.2c1.1,0,2.1-0.3,3.1-0.8
												c1.9-1,3.4-2.9,4.2-5.4c0.8-2.4,0.9-5.2,0.8-8c-0.1-2.8-0.6-5.6-1.1-8.5c1.3,2.6,2.4,5.3,3.1,8.2
												c0.3,1.4,0.6,2.9,0.7,4.4c0.1,1.5,0.1,3.1-0.2,4.6c-0.3,1.6-0.8,3.2-1.7,4.6c-0.2,0.4-0.5,0.7-0.7,1.1
												c-0.3,0.3-0.6,0.7-0.9,1c-0.6,0.6-1.3,1.2-2.1,1.6c-0.8,0.4-1.6,0.8-2.5,1c-0.9,0.2-1.8,0.3-2.7,0.3
												c-0.9,0-1.8-0.1-2.7-0.5c-0.9-0.3-1.8-0.8-2.6-1.8L231.9,190.5z"/>
										</g>
									</g>
								</g>
							</g>
						</g>
					</g>
					<g>
						<g>
							<g>
								<g>
									<g>
										<g>
											<path class="st1" d="M262.8,197c-2.9,0-5.7-1.1-8-3.2c-4.2-3.7-6.7-10-6.2-16.1c0.7-9.6,12-25.1,12.5-25.8l1.9-2.7
												l9.1,21.1c2.3,5.4,2.8,15.1-0.3,21c-1.5,2.9-3.8,4.8-6.6,5.4C264.4,197,263.6,197,262.8,197z M262.1,156.9
												c-3.2,4.8-9.4,14.8-9.8,21.1c-0.4,4.9,1.6,10.1,5,13c1.5,1.3,4,2.8,7.2,2.1c1.7-0.4,3-1.5,4-3.4
												c2.4-4.7,2.1-13.3,0.1-17.8L262.1,156.9z"/>
										</g>
									</g>
								</g>
							</g>
						</g>
						<g>
							<g>
								<g>
									<g>
										<g>
											<path class="st1" d="M260.3,182l1.1-3.9c2.4-8.9-0.6-24.5-0.7-24.7l3.7-0.7c0.1,0.6,2.4,12.3,1.4,21.8
												c1.1-1,2.2-2.3,2.8-4l3.6,1.3c-2,5.6-7.9,8.4-8.2,8.5L260.3,182z"/>
										</g>
									</g>
								</g>
							</g>
						</g>
						<g>
							<g>
								<g>
									<g>
										<g>
											<path class="st1" d="M270.9,193c-0.8,0.9-1.7,1.4-2.6,1.8c-0.9,0.3-1.8,0.5-2.7,0.5c-0.9,0-1.8-0.1-2.7-0.3
												c-0.9-0.2-1.7-0.6-2.5-1c-0.8-0.4-1.5-1-2.1-1.6c-0.3-0.3-0.6-0.6-0.9-1c-0.2-0.4-0.5-0.7-0.7-1.1
												c-0.9-1.4-1.4-3.1-1.7-4.6c-0.3-1.6-0.3-3.1-0.2-4.6c0.1-1.5,0.4-3,0.7-4.4c0.7-2.9,1.8-5.6,3.1-8.2
												c-0.5,2.9-0.9,5.7-1.1,8.5c-0.1,2.8,0,5.6,0.8,8c0.8,2.4,2.2,4.4,4.2,5.4c1,0.5,2.1,0.8,3.1,0.8c0.5,0,1.1,0,1.5-0.2
												c0.5-0.1,0.8-0.3,1-0.4L270.9,193z"/>
										</g>
									</g>
								</g>
							</g>
						</g>
					</g>
				</g>
			</g>
			<g>
				<g>
					<g>
						<g>
							<g>
								<g>
									<g>
										<polygon class="st1" points="180.3,353.7 164.8,370.7 176.4,350.8 										"/>
									</g>
								</g>
							</g>
						</g>
					</g>
					<g>
						<g>
							<g>
								<g>
									<g>
										<g>
											<polygon class="st1" points="181.4,348.2 178.9,368.9 173.9,368.6 175.4,356.3 164.1,361.4 162.4,356.7 											"/>
										</g>
									</g>
								</g>
							</g>
						</g>
						<g>
							<g>
								<g>
									<g>
										<g>
											<g>
												<path class="st1" d="M211.8,330.5c-0.5-0.6-1-1.1-1.6-1.5c-2.1-1.6-4.8-2.2-7.9-1.9c-5.4,0.7-10.9,4.4-14.2,9.6
													c-5.2,8.1-6.2,26.8-6.2,27.6l-0.2,3.2l4.8-3c0-0.3,0.1-0.5,0.4-0.7c4-2.4,7-5.8,11.3-7.9c2.6-1.3,5.1-2.8,7.6-4.3
													c3.6-3.7,6.8-8.7,7.7-13.2C214.1,335.3,213.5,332.5,211.8,330.5z M209.9,338c-1,5.1-6.4,11.8-10.5,14.4l-13.7,8.5
													c0.5-5.6,1.9-17,5.3-22.4c2.6-4.1,7.2-7.2,11.4-7.8c1.9-0.2,4.6,0,6.5,2.3C210,334.3,210.3,335.9,209.9,338z"/>
											</g>
										</g>
									</g>
								</g>
							</g>
							<g>
								<g>
									<g>
										<g>
											<g>
												<path class="st1" d="M198.6,353.5l2.7,0.8c0.3-0.2,0.6-0.3,0.8-0.5c1.5-5.3-1.1-10.5-1.2-10.7l-1.7-3.4l-1.5,3.7
													c-3.5,8.5-15.1,19.4-15.2,19.5l2.3,2.6c0.4-0.4,9.1-8.6,14.1-16.8C199.1,350.2,199.1,351.9,198.6,353.5z"/>
											</g>
										</g>
									</g>
								</g>
							</g>
							<g>
								<g>
									<g>
										<g>
											<g>
												<path class="st1" d="M210.1,337.1c-0.1-0.2-0.2-0.6-0.5-0.9c-0.3-0.3-0.6-0.7-1-0.9c-0.8-0.6-1.8-0.9-2.8-1.1
													c-2-0.3-4.3,0.5-6.3,2c-2,1.5-3.8,3.7-5.4,6c-1.6,2.3-2.9,4.8-4.3,7.4c0.6-2.8,1.4-5.6,2.6-8.3c0.6-1.3,1.3-2.7,2.1-4
													c0.8-1.3,1.8-2.5,2.9-3.6c1.2-1.1,2.5-2.1,4-2.8c0.4-0.2,0.8-0.3,1.2-0.4c0.4-0.1,0.8-0.2,1.2-0.3
													c0.8-0.1,1.7-0.2,2.5-0.1c0.8,0.1,1.7,0.2,2.4,0.5c0.8,0.3,1.5,0.7,2.2,1.2c0.7,0.5,1.3,1.1,1.7,1.9
													c0.5,0.8,0.9,1.7,0.9,2.9L210.1,337.1z"/>
											</g>
										</g>
									</g>
								</g>
							</g>
						</g>
						<g>
							<g>
								<g>
									<g>
										<g>
											<g>
												<path class="st1" d="M195.1,321.8c-0.5-3-1.9-5.4-4.1-7c-0.6-0.4-1.2-0.8-1.9-1.1c-2.4-1.1-5.2-0.8-8.1,0.7
													c-3.5,1.9-6.9,5.6-9.3,9.5c-0.8,3.2-2.2,6.1-3.3,9.2c-1.2,3.4-2.1,7-3.4,10.4l-2.6,9.7l3-1.1
													c0.7-0.3,18.4-6.6,24.6-13.9C194.1,333.6,196.1,327.2,195.1,321.8z M187.5,336c-4.1,4.8-14.6,9.5-19.9,11.6l4.2-15.6
													c1.2-4.7,6.1-11.8,10.7-14.2c1.9-1,3.5-1.2,5-0.5c2.8,1.2,3.7,3.7,4.1,5.6C192.3,326.9,190.7,332.2,187.5,336z"/>
											</g>
										</g>
									</g>
								</g>
							</g>
							<g>
								<g>
									<g>
										<g>
											<g>
												<path class="st1" d="M180.3,327.7c-0.2,0-5.8-1-10.5,1.9c-0.1,0.3-0.2,0.6-0.4,0.9l1.6,2.5c1.4-1,3-1.5,4.4-1.7
													c-6.4,7.1-11.7,17.8-12,18.4l3.2,1.4c0.1-0.1,7.1-14.4,14.2-20.2l3.1-2.6L180.3,327.7z"/>
											</g>
										</g>
									</g>
								</g>
							</g>
							<g>
								<g>
									<g>
										<g>
											<g>
												<path class="st1" d="M182.7,313.7c1.1-0.3,2.1-0.2,3,0c0.9,0.2,1.6,0.6,2.3,1.1c0.7,0.5,1.3,1.1,1.8,1.7
													c0.5,0.6,0.9,1.4,1.2,2.2c0.3,0.8,0.5,1.6,0.6,2.4c0,0.4,0.1,0.8,0.1,1.3c0,0.4,0,0.8-0.1,1.3c-0.2,1.7-0.8,3.2-1.5,4.7
													c-0.7,1.4-1.6,2.7-2.6,3.9c-1,1.2-2.1,2.2-3.2,3.2c-2.2,1.9-4.7,3.6-7.2,4.9c2.1-2,4.1-4.1,5.9-6.2
													c1.7-2.2,3.3-4.5,4.2-6.9c0.9-2.4,1-4.8,0.1-6.6c-0.4-0.9-1.1-1.8-1.8-2.4c-0.4-0.3-0.8-0.6-1.2-0.7
													c-0.4-0.2-0.8-0.2-1-0.2L182.7,313.7z"/>
											</g>
										</g>
									</g>
								</g>
							</g>
						</g>
					</g>
				</g>
				<g>
					<g>
						<g>
							<g>
								<polygon class="st1" points="193.4,317.3 195.4,316.8 202.6,325.6 205,329.1 193.4,333.1 194,325 								"/>
							</g>
						</g>
					</g>
				</g>
			</g>
			<g>
				<g>
					<g>
						<g>
							<g>
								<g>
									<g>
										<polygon class="st1" points="151.2,240 135.8,232.5 152.6,236.5 										"/>
									</g>
								</g>
							</g>
						</g>
					</g>
					<g>
						<g>
							<g>
								<g>
									<g>
										<g>
											<polygon class="st1" points="155.5,239.5 139.8,242.4 139,238.7 148.4,237 142.5,229.9 145.7,227.6 											"/>
										</g>
									</g>
								</g>
							</g>
						</g>
						<g>
							<g>
								<g>
									<g>
										<g>
											<g>
												<path class="st1" d="M175,249.8c-1.5-3.7-5.3-6.9-9.7-8.2c-7-1.9-20.9,1.7-21.5,1.8l-2.4,0.6l0.5,0.5
													c4,1.2,6.6,4.6,9.4,7.3c2.8,2.7,6,5.3,9.5,7.4c2.7,1,5.6,1.5,8,1.2c2.5-0.3,4.4-1.3,5.5-3c0.3-0.5,0.6-1,0.8-1.5
													C175.8,254,175.8,251.9,175,249.8z M171.9,256c-0.7,1-1.8,1.6-3.5,1.8c-4,0.4-9.9-1.9-12.6-4.3l-8.9-8
													c4.2-0.9,12.9-2.5,17.5-1.3c3.5,1,6.7,3.6,7.9,6.5C172.8,252.1,173.2,254.1,171.9,256z"/>
											</g>
										</g>
									</g>
								</g>
							</g>
							<g>
								<g>
									<g>
										<g>
											<g>
												<path class="st1" d="M147.4,248c2.9,1.5,7.1,3.3,11,4.2c-1,0.5-2.3,0.9-3.5,0.9l0,2c0.3,0.2,0.6,0.4,0.8,0.7
													c4.1-0.3,7.2-3.2,7.3-3.3l2.2-2l-3-0.3c-6.9-0.6-17.2-6.5-17.3-6.6l-1.1,1.7C145,246.1,146.2,247,147.4,248z"/>
											</g>
										</g>
									</g>
								</g>
							</g>
							<g>
								<g>
									<g>
										<g>
											<g>
												<path class="st1" d="M169.1,257.8c0.1-0.1,0.4-0.3,0.6-0.6c0.2-0.3,0.4-0.6,0.5-1c0.3-0.7,0.4-1.5,0.3-2.3
													c-0.2-1.5-1.2-3-2.7-4.1c-1.5-1.1-3.4-1.9-5.4-2.5c-2-0.6-4.1-1-6.3-1.4c2.2-0.2,4.4-0.2,6.6,0c1.1,0.2,2.2,0.3,3.3,0.7
													c1.1,0.3,2.2,0.7,3.2,1.3c1,0.6,2,1.3,2.8,2.3c0.2,0.2,0.4,0.5,0.6,0.8c0.2,0.3,0.3,0.5,0.5,0.8
													c0.3,0.6,0.5,1.2,0.6,1.8c0.1,0.6,0.1,1.3,0.1,1.9c-0.1,0.6-0.2,1.3-0.5,1.8c-0.2,0.6-0.6,1.2-1.1,1.7
													c-0.5,0.5-1.1,1-1.9,1.3L169.1,257.8z"/>
											</g>
										</g>
									</g>
								</g>
							</g>
						</g>
						<g>
							<g>
								<g>
									<g>
										<g>
											<g>
												<path class="st1" d="M172.4,227.1l-24.2-0.2l1.3,1.9c0.3,0.5,8.3,11.8,14.9,14.7c4.2,1.8,9.3,1.8,13.1-0.1
													c2.1-1.1,3.6-2.6,4.4-4.5c0.2-0.5,0.4-1.1,0.5-1.7c0.3-2-0.4-4-2-5.7C178.5,229.6,175.5,228,172.4,227.1z M179.6,236.8
													c-0.4,2.3-2,3.6-3.4,4.2c-2.9,1.5-7.2,1.5-10.5,0.1c-4.3-1.9-9.8-8.5-12.3-11.8l12.3-0.6c3.7-0.2,9.8,1.7,12.5,4.5
													C179.3,234.4,179.8,235.6,179.6,236.8z"/>
											</g>
										</g>
									</g>
								</g>
							</g>
							<g>
								<g>
									<g>
										<g>
											<g>
												<path class="st1" d="M167.3,227.1l-1.4,0l-1.2,1.4c1,0.8,1.6,1.8,2.1,2.8c-5.2-2.4-12.1-3.8-14.7-4.3l-1.1,0l-0.4,2.5
													c0.1,0,12,1.9,17.6,5.7l2.5,1.7l-0.2-2.9C170.4,233.8,170,229.8,167.3,227.1z"/>
											</g>
										</g>
									</g>
								</g>
							</g>
							<g>
								<g>
									<g>
										<g>
											<g>
												<path class="st1" d="M181.2,232.5c0.5,0.7,0.6,1.5,0.6,2.2c0,0.7-0.2,1.3-0.4,1.9c-0.2,0.6-0.5,1.2-0.9,1.7
													c-0.4,0.5-0.8,1-1.4,1.4c-0.5,0.4-1.1,0.7-1.7,1c-0.3,0.1-0.6,0.2-0.9,0.3c-0.3,0.1-0.6,0.2-0.9,0.2
													c-1.3,0.2-2.5,0.2-3.7,0c-1.2-0.2-2.3-0.6-3.3-1c-1.1-0.4-2-1-3-1.6c-1.8-1.2-3.5-2.6-5-4.1c1.9,1,3.8,2,5.7,2.8
													c1.9,0.8,3.9,1.4,5.9,1.4c1.9,0.1,3.7-0.4,4.9-1.4c0.6-0.5,1.1-1.2,1.4-1.9c0.1-0.3,0.3-0.7,0.3-1c0-0.3,0-0.6,0-0.8
													L181.2,232.5z"/>
											</g>
										</g>
									</g>
								</g>
							</g>
						</g>
					</g>
				</g>
				<g>
					<g>
						<g>
							<g>
								<polygon class="st1" points="169.5,244.5 179.5,242.3 176.6,249.6 176,254.6 								"/>
							</g>
						</g>
					</g>
				</g>
			</g>
			<g>
				<g>
					<g>
						<g>
							<polygon class="st1" points="248.8,182.9 242.6,194.9 257.2,194.9 							"/>
						</g>
					</g>
				</g>
			</g>
			<g>
				<g>
					<g>
						<g>
							<g>
								<g>
									<g>
										<polygon class="st1" points="319,353.6 334.8,370.3 322.8,350.6 										"/>
									</g>
								</g>
							</g>
						</g>
					</g>
					<g>
						<g>
							<g>
								<g>
									<g>
										<g>
											<polygon class="st1" points="317.8,348.1 320.7,368.7 325.7,368.4 324,356.1 335.4,361 337,356.2 											"/>
										</g>
									</g>
								</g>
							</g>
						</g>
						<g>
							<g>
								<g>
									<g>
										<g>
											<g>
												<path class="st1" d="M288.8,329.3c-0.6,0.4-1.1,1-1.6,1.5c-1.7,2-2.2,4.8-1.5,8c1.4,6.4,7.6,13.9,12.6,16.9l19.6,11.7
													l-0.2-3.2c-0.1-0.8-1.3-19.5-6.6-27.5c-3.4-5.1-9-8.8-14.4-9.3C293.6,327,290.9,327.7,288.8,329.3z M313.8,360.9
													l-13.9-8.3c-4.2-2.5-9.6-9.1-10.7-14.2c-0.4-2.1-0.2-3.7,0.9-5c1.9-2.3,4.6-2.6,6.5-2.4c4.2,0.4,8.9,3.5,11.6,7.6
													C311.6,343.9,313.2,355.3,313.8,360.9z"/>
											</g>
										</g>
									</g>
								</g>
							</g>
							<g>
								<g>
									<g>
										<g>
											<g>
												<path class="st1" d="M299.8,339.9l-1.7,3.4c-0.1,0.2-2.8,5.8-0.8,11.4l3.4-1c-0.6-1.6-0.6-3.3-0.4-4.7
													c5.1,8.1,13.9,16.2,14.3,16.6l2.3-2.7c-0.1-0.1-11.9-10.8-15.5-19.3L299.8,339.9z"/>
											</g>
										</g>
									</g>
								</g>
							</g>
							<g>
								<g>
									<g>
										<g>
											<g>
												<path class="st1" d="M289,337.5c0.1-0.2,0.2-0.6,0.5-0.9c0.3-0.4,0.6-0.7,1-1c0.8-0.6,1.8-1,2.8-1.1
													c2-0.3,4.3,0.4,6.4,1.9c2.1,1.5,3.9,3.6,5.5,5.9c1.6,2.3,3,4.8,4.4,7.4c-0.6-2.8-1.5-5.6-2.8-8.2
													c-0.7-1.3-1.3-2.7-2.2-3.9c-0.9-1.3-1.8-2.5-3-3.6c-1.2-1.1-2.5-2.1-4.1-2.7c-0.4-0.2-0.8-0.3-1.2-0.4
													c-0.4-0.1-0.8-0.2-1.2-0.3c-0.8-0.1-1.7-0.2-2.5-0.1c-0.8,0.1-1.6,0.3-2.4,0.6c-0.8,0.3-1.5,0.7-2.1,1.2
													c-0.7,0.5-1.2,1.1-1.7,1.9c-0.5,0.8-0.8,1.7-0.8,2.9L289,337.5z"/>
											</g>
										</g>
									</g>
								</g>
							</g>
						</g>
						<g>
							<g>
								<g>
									<g>
										<g>
											<g>
												<path class="st1" d="M333.5,341.3c-0.1-0.1-0.2-0.2-0.3-0.3c-3.2-6.4-5.1-13.4-8-19.9c-2.2-2.8-4.9-5.4-7.7-6.8
													c-2.9-1.5-5.7-1.7-8.1-0.6c-0.7,0.3-1.3,0.7-1.9,1.1c-2.1,1.6-3.5,4-3.9,7c-0.8,5.3,1.2,11.7,5.3,16.3
													c6.4,7.2,24.1,13.3,24.8,13.5l3.1,1L333.5,341.3z M311.5,336c-3.2-3.7-5-8.9-4.3-13.1c0.3-1.9,1.2-4.4,4-5.7
													c1.5-0.7,3.1-0.5,5,0.5c4.7,2.4,9.6,9.4,10.9,14.1l4.4,15.6C326.3,345.2,315.7,340.7,311.5,336z"/>
											</g>
										</g>
									</g>
								</g>
							</g>
							<g>
								<g>
									<g>
										<g>
											<g>
												<path class="st1" d="M323.5,331.2c1.4,0.2,3.1,0.6,4.5,1.6l1.1-1.9c-0.2-0.7-0.5-1.3-0.7-1.9c-4.5-2.3-9.5-1.4-9.8-1.4
													l-3.7,0.7l3.2,2.5c7.2,5.7,14.5,19.9,14.6,20l3.2-1.5C335.5,348.8,330,338.2,323.5,331.2z"/>
											</g>
										</g>
									</g>
								</g>
							</g>
							<g>
								<g>
									<g>
										<g>
											<g>
												<path class="st1" d="M315.9,313.7c-1.1-0.3-2.1-0.2-3,0.1c-0.9,0.3-1.6,0.7-2.3,1.2c-0.7,0.5-1.3,1.1-1.7,1.7
													c-0.5,0.7-0.9,1.4-1.2,2.2c-0.3,0.8-0.5,1.6-0.6,2.4c0,0.4,0,0.8,0,1.3c0,0.4,0,0.8,0.1,1.3c0.2,1.7,0.8,3.2,1.6,4.6
													c0.7,1.4,1.7,2.7,2.7,3.8c1,1.2,2.1,2.2,3.2,3.2c2.3,1.9,4.7,3.5,7.2,4.8c-2.1-2-4.2-4-6-6.1c-1.8-2.2-3.4-4.4-4.3-6.8
													c-0.9-2.4-1-4.8-0.2-6.6c0.4-0.9,1-1.8,1.8-2.4c0.4-0.3,0.8-0.6,1.2-0.7c0.4-0.2,0.8-0.2,1-0.2L315.9,313.7z"/>
											</g>
										</g>
									</g>
								</g>
							</g>
						</g>
					</g>
				</g>
				<g>
					<g>
						<g>
							<g>
								<polygon class="st1" points="305.3,317.4 303.3,316.9 296.3,325.8 293.9,329.4 305.6,333.2 304.8,325.1 								"/>
							</g>
						</g>
					</g>
				</g>
			</g>
			<g>
				<g>
					<g>
						<g>
							<g>
								<g>
									<g>
										<polygon class="st1" points="347.8,240.1 363,232.2 346.4,236.5 										"/>
									</g>
								</g>
							</g>
						</g>
					</g>
					<g>
						<g>
							<g>
								<g>
									<g>
										<g>
											<polygon class="st1" points="343.6,239.6 359,242.3 359.8,238.5 350.6,236.9 356.4,229.6 353.3,227.4 											"/>
										</g>
									</g>
								</g>
							</g>
						</g>
						<g>
							<g>
								<g>
									<g>
										<g>
											<g>
												<path class="st1" d="M324.3,250.5c1.5-3.8,5.3-7.2,9.7-8.5c6.9-2.1,20.7,1.3,21.2,1.5l2.4,0.6l-0.5,0.5
													c-3.9,1.3-6.5,4.8-9.3,7.6c-2.8,2.8-6,5.5-9.4,7.7c-2.7,1-5.5,1.6-7.9,1.4c-2.4-0.2-4.3-1.3-5.5-3
													c-0.3-0.5-0.6-1-0.8-1.5C323.4,254.8,323.4,252.7,324.3,250.5z M327.3,256.8c0.7,1,1.8,1.6,3.4,1.8
													c3.9,0.4,9.8-2.1,12.5-4.6l8.8-8.3c-4.2-0.9-12.7-2.3-17.3-1c-3.5,1.1-6.6,3.8-7.8,6.8
													C326.4,252.8,326,254.8,327.3,256.8z"/>
											</g>
										</g>
									</g>
								</g>
							</g>
							<g>
								<g>
									<g>
										<g>
											<g>
												<path class="st1" d="M351.5,248.2c-2.9,1.5-7,3.5-10.9,4.5c1,0.5,2.2,0.9,3.5,0.8l0,2c-0.3,0.2-0.6,0.5-0.8,0.7
													c-4-0.2-7.1-3.1-7.2-3.2l-2.1-2l3-0.3c6.8-0.7,17-7,17.1-7l1.1,1.7C353.8,246.1,352.6,247.1,351.5,248.2z"/>
											</g>
										</g>
									</g>
								</g>
							</g>
							<g>
								<g>
									<g>
										<g>
											<g>
												<path class="st1" d="M330,258.5c-0.1-0.1-0.4-0.3-0.6-0.6c-0.2-0.3-0.4-0.6-0.5-1c-0.3-0.7-0.3-1.5-0.2-2.3
													c0.2-1.6,1.2-3.1,2.7-4.2c1.5-1.2,3.4-2,5.4-2.7c2-0.7,4.1-1.1,6.2-1.5c-2.1-0.2-4.3-0.2-6.5,0.1
													c-1.1,0.2-2.2,0.4-3.3,0.7c-1.1,0.3-2.2,0.8-3.2,1.4c-1,0.6-2,1.4-2.8,2.4c-0.2,0.2-0.4,0.5-0.5,0.8
													c-0.2,0.3-0.3,0.6-0.5,0.8c-0.3,0.6-0.5,1.2-0.6,1.8c-0.1,0.6-0.1,1.3-0.1,1.9c0.1,0.6,0.2,1.3,0.5,1.9
													c0.2,0.6,0.6,1.2,1,1.7c0.5,0.5,1.1,1,1.9,1.3L330,258.5z"/>
											</g>
										</g>
									</g>
								</g>
							</g>
						</g>
						<g>
							<g>
								<g>
									<g>
										<g>
											<g>
												<path class="st1" d="M326.9,227.4l23.9-0.6l-1.3,2c-0.3,0.5-8.3,12.2-14.8,15.2c-4.1,1.9-9.2,2-12.9,0.1
													c-2.1-1-3.6-2.6-4.3-4.5c-0.2-0.5-0.4-1.1-0.4-1.7c-0.3-2,0.4-4.1,2.1-5.8C320.9,230,323.9,228.4,326.9,227.4z
													 M319.8,237.4c0.4,2.3,2,3.6,3.3,4.3c2.9,1.5,7.1,1.4,10.4-0.1c4.3-2,9.7-8.8,12.2-12.2l-12.1-0.3
													c-3.6-0.1-9.7,1.9-12.4,4.8C320.1,235,319.6,236.1,319.8,237.4z"/>
											</g>
										</g>
									</g>
								</g>
							</g>
							<g>
								<g>
									<g>
										<g>
											<g>
												<path class="st1" d="M332,227.3l1.3,0l1.2,1.4c-1,0.8-1.6,1.9-2.1,2.9c5.2-2.6,11.9-4.1,14.5-4.7l1.1,0l0.4,2.5
													c-0.1,0-11.8,2.1-17.4,6.1l-2.5,1.8l0.2-2.9C328.9,234.1,329.3,230.1,332,227.3z"/>
											</g>
										</g>
									</g>
								</g>
							</g>
							<g>
								<g>
									<g>
										<g>
											<g>
												<path class="st1" d="M318.2,233.1c-0.4,0.8-0.6,1.5-0.6,2.2c0,0.7,0.1,1.3,0.4,2c0.2,0.6,0.5,1.2,0.9,1.7
													c0.4,0.5,0.8,1,1.3,1.4c0.5,0.4,1.1,0.7,1.7,1c0.3,0.1,0.6,0.2,0.9,0.3c0.3,0.1,0.6,0.2,0.9,0.2
													c1.2,0.2,2.5,0.1,3.7-0.1c1.2-0.2,2.3-0.6,3.3-1.1c1-0.4,2-1.1,2.9-1.6c1.8-1.2,3.5-2.7,4.9-4.2c-1.9,1.1-3.7,2.2-5.6,3
													c-1.9,0.8-3.9,1.5-5.8,1.6c-1.9,0.1-3.7-0.3-4.8-1.4c-0.6-0.5-1.1-1.2-1.4-1.9c-0.1-0.4-0.3-0.7-0.3-1
													c0-0.3,0-0.6,0-0.8L318.2,233.1z"/>
											</g>
										</g>
									</g>
								</g>
							</g>
						</g>
					</g>
				</g>
				<g>
					<g>
						<g>
							<g>
								<polygon class="st1" points="329.7,245 319.8,242.9 322.6,250.4 323.3,255.4 								"/>
							</g>
						</g>
					</g>
				</g>
			</g>
		</g>
		<g>
			<g>
				<g>
					<g>
						<g>
							<circle class="st0" cx="249.7" cy="72.2" r="31.3"/>
						</g>
					</g>
				</g>
			</g>
			<g>
				<g>
					<g>
						<g>
							<path class="st1" d="M227,61c0-0.2,15.6-13.3,35.7-10.9c20,2.4-1.8-1.8-1.8-1.8l-11.1-3.6l-8.3,1.6l-9.8,4.2l-4.2,4.8L227,61
								z"/>
						</g>
					</g>
				</g>
			</g>
			<g>
				<g>
					<g>
						<g>
							<path class="st1" d="M224.6,75.7c0,0,9.3,9.4,23.3,9.2c0,0-6.2-1.1-10-5c0,0,18.2,4.4,29.8-4.6c0,0-0.3,3.6-1.6,5.7
								c0,0,6.4-4.8,8.3-14.1c0,0,5.4,26.9-19,31.3c-24.4,4.4-31.1-19-31.1-19v-3.5L224.6,75.7z"/>
						</g>
					</g>
				</g>
			</g>
			<g>
				<g>
					<g>
						<g>
							<path class="st0" d="M249.7,47.7c13.5,0,24.5,11,24.5,24.5s-11,24.5-24.5,24.5c-13.5,0-24.5-11-24.5-24.5
								S236.2,47.7,249.7,47.7L249.7,47.7z M249.7,40.9c-17.3,0-31.3,14-31.3,31.3s14,31.3,31.3,31.3s31.3-14,31.3-31.3
								S267,40.9,249.7,40.9L249.7,40.9z"/>
						</g>
					</g>
				</g>
			</g>
			<g>
				<g>
					<g>
						<g>
							<path class="st1" d="M249.7,106.2c-18.7,0-33.9-15.2-33.9-33.9c0-18.7,15.2-33.9,33.9-33.9c18.7,0,33.9,15.2,33.9,33.9
								C283.7,90.9,268.4,106.2,249.7,106.2z M249.7,43.6c-15.8,0-28.7,12.9-28.7,28.7s12.9,28.7,28.7,28.7
								c15.8,0,28.7-12.9,28.7-28.7S265.5,43.6,249.7,43.6z"/>
						</g>
					</g>
				</g>
			</g>
		</g>
		<g>
			<g>
				<g>
					<g>
						<g>
							<circle class="st0" cx="118.7" cy="429.5" r="31.3"/>
						</g>
					</g>
				</g>
			</g>
			<g>
				<g>
					<g>
						<g>
							<path class="st1" d="M96.8,417.7c0,0,12.5-12.5,31.6-11.7c19.1,0.8-8.4-4.5-8.4-4.5l-12.7,2.1l-14.7,6.2l4.9,3.9L96.8,417.7z
								"/>
						</g>
					</g>
				</g>
			</g>
			<g>
				<g>
					<g>
						<g>
							<path class="st1" d="M92.9,426.1c0,0,3.8,13.8,19.4,16.4c0,0-5.3-2.9-9.7-8.9c0,0,11.5,7.6,20.8,6.2c0,0-5.2-0.5-10.5-4.6
								c0,0,18.3,3.8,22.8-9.6c0,0,2.2,3.8,0,9.4c0,0,7.2-10.4,1-24.2l7.7,4.1l3.1,12.9l-3.3,19.1L132.4,457l-23.3,2.4l-17.3-13.6
								l-0.6-15.6L92.9,426.1z"/>
						</g>
					</g>
				</g>
			</g>
			<g>
				<g>
					<g>
						<g>
							<path class="st0" d="M118.7,405c13.5,0,24.5,11,24.5,24.5c0,13.5-11,24.5-24.5,24.5s-24.5-11-24.5-24.5
								C94.1,416,105.1,405,118.7,405L118.7,405z M118.7,398.2c-17.3,0-31.3,14-31.3,31.3c0,17.3,14,31.3,31.3,31.3
								s31.3-14,31.3-31.3C150,412.2,135.9,398.2,118.7,398.2L118.7,398.2z"/>
						</g>
					</g>
				</g>
			</g>
			<g>
				<g>
					<g>
						<g>
							<path class="st1" d="M118.7,463.5c-18.7,0-33.9-15.2-33.9-33.9s15.2-33.9,33.9-33.9c18.7,0,33.9,15.2,33.9,33.9
								S137.4,463.5,118.7,463.5z M118.7,400.9c-15.8,0-28.7,12.9-28.7,28.7c0,15.8,12.9,28.7,28.7,28.7c15.8,0,28.7-12.9,28.7-28.7
								C147.3,413.7,134.5,400.9,118.7,400.9z"/>
						</g>
					</g>
				</g>
			</g>
		</g>
		<g>
			<g>
				<g>
					<g>
						<g>
							<circle class="st0" cx="382.1" cy="429.5" r="31.3"/>
						</g>
					</g>
				</g>
			</g>
			<g>
				<g>
					<g>
						<g>
							<path class="st1" d="M403.9,417.7c0,0-12.5-12.5-31.6-11.7c-19.1,0.8,8.4-4.5,8.4-4.5l12.7,2.1l14.7,6.2l-4.9,3.9
								L403.9,417.7z"/>
						</g>
					</g>
				</g>
			</g>
			<g>
				<g>
					<g>
						<g>
							<path class="st1" d="M407.9,426.1c0,0-3.8,13.8-19.4,16.4c0,0,5.3-2.9,9.7-8.9c0,0-11.5,7.6-20.8,6.2c0,0,5.2-0.5,10.5-4.6
								c0,0-18.3,3.8-22.8-9.6c0,0-2.2,3.8,0,9.4c0,0-7.2-10.4-1-24.2l-7.7,4.1l-3.1,12.9l3.3,19.1l11.6,10.1l23.3,2.4l17.3-13.6
								l0.6-15.6L407.9,426.1z"/>
						</g>
					</g>
				</g>
			</g>
			<g>
				<g>
					<g>
						<g>
							<path class="st0" d="M382.1,405c13.5,0,24.5,11,24.5,24.5c0,13.5-11,24.5-24.5,24.5c-13.5,0-24.5-11-24.5-24.5
								C357.5,416,368.5,405,382.1,405L382.1,405z M382.1,398.2c-17.3,0-31.3,14-31.3,31.3c0,17.3,14,31.3,31.3,31.3
								c17.3,0,31.3-14,31.3-31.3C413.4,412.2,399.3,398.2,382.1,398.2L382.1,398.2z"/>
						</g>
					</g>
				</g>
			</g>
			<g>
				<g>
					<g>
						<g>
							<path class="st1" d="M382.1,463.5c-18.7,0-33.9-15.2-33.9-33.9s15.2-33.9,33.9-33.9c18.7,0,33.9,15.2,33.9,33.9
								S400.8,463.5,382.1,463.5z M382.1,400.9c-15.8,0-28.7,12.9-28.7,28.7c0,15.8,12.9,28.7,28.7,28.7c15.8,0,28.7-12.9,28.7-28.7
								C410.7,413.7,397.9,400.9,382.1,400.9z"/>
						</g>
					</g>
				</g>
			</g>
		</g>
		<g>
			<g>
				<g>
					<g>
						<g>
							<path class="st0" d="M90.1,205.1c0,17.3-14,31.3-31.3,31.3s-31.3-14-31.3-31.3c0-17.3,14-31.3,31.3-31.3
								S90.1,187.8,90.1,205.1z"/>
						</g>
					</g>
				</g>
			</g>
			<g>
				<g>
					<g>
						<g>
							<path class="st1" d="M36.8,192.6c0,0-2.7,11.9,7.9,18.6c10.5,6.7,21.2,1.1,21.2,1.1s-5.9,7.4-15.3,5.4
								c0,0,20.9,9.4,33.7-12.6c0,0,2.8,18.7-16,25.7c-18.8,7-34.9-15.1-34.9-15.1l-1.7-11.8L36.8,192.6z"/>
						</g>
					</g>
				</g>
			</g>
			<g>
				<g>
					<g>
						<g>
							<path class="st0" d="M58.8,180.6c13.5,0,24.5,11,24.5,24.5c0,13.5-11,24.5-24.5,24.5s-24.5-11-24.5-24.5
								C34.3,191.6,45.3,180.6,58.8,180.6L58.8,180.6z M58.8,173.8c-17.3,0-31.3,14-31.3,31.3c0,17.3,14,31.3,31.3,31.3
								s31.3-14,31.3-31.3C90.1,187.8,76.1,173.8,58.8,173.8L58.8,173.8z"/>
						</g>
					</g>
				</g>
			</g>
			<g>
				<g>
					<g>
						<g>
							<path class="st1" d="M58.8,239c-18.7,0-33.9-15.2-33.9-33.9c0-18.7,15.2-33.9,33.9-33.9c18.7,0,33.9,15.2,33.9,33.9
								C92.7,223.8,77.5,239,58.8,239z M58.8,176.4c-15.8,0-28.7,12.9-28.7,28.7c0,15.8,12.9,28.7,28.7,28.7
								c15.8,0,28.7-12.9,28.7-28.7C87.5,189.3,74.6,176.4,58.8,176.4z"/>
						</g>
					</g>
				</g>
			</g>
			<g>
				<g>
					<g>
						<g>
							<path class="st1" d="M56.1,183.8c1.7-0.6,3.5-0.7,5.2-0.6c1.8,0.1,3.5,0.5,5.2,1.1c1.7,0.6,3.3,1.4,4.6,2.5
								c1.4,1,2.6,2.4,3.6,3.8c-1.6-0.8-3-1.6-4.5-2.3c-1.5-0.7-3-1.3-4.5-1.9c-1.5-0.6-3.1-1-4.7-1.5
								C59.5,184.5,57.9,184.2,56.1,183.8z"/>
						</g>
					</g>
				</g>
			</g>
		</g>
		<g>
			<g>
				<g>
					<g>
						<g>
							<path class="st0" d="M409.8,205.1c0,17.3,14,31.3,31.3,31.3c17.3,0,31.3-14,31.3-31.3c0-17.3-14-31.3-31.3-31.3
								C423.8,173.8,409.8,187.8,409.8,205.1z"/>
						</g>
					</g>
				</g>
			</g>
			<g>
				<g>
					<g>
						<g>
							<path class="st1" d="M463.2,192.6c0,0,2.7,11.9-7.9,18.6c-10.5,6.7-21.2,1.1-21.2,1.1s5.9,7.4,15.3,5.4
								c0,0-20.9,9.4-33.7-12.6c0,0-2.8,18.7,16,25.7c18.8,7,34.9-15.1,34.9-15.1l1.7-11.8L463.2,192.6z"/>
						</g>
					</g>
				</g>
			</g>
			<g>
				<g>
					<g>
						<g>
							<path class="st0" d="M441.1,180.6c13.5,0,24.5,11,24.5,24.5c0,13.5-11,24.5-24.5,24.5c-13.5,0-24.5-11-24.5-24.5
								C416.6,191.6,427.6,180.6,441.1,180.6L441.1,180.6z M441.1,173.8c-17.3,0-31.3,14-31.3,31.3c0,17.3,14,31.3,31.3,31.3
								c17.3,0,31.3-14,31.3-31.3C472.4,187.8,458.4,173.8,441.1,173.8L441.1,173.8z"/>
						</g>
					</g>
				</g>
			</g>
			<g>
				<g>
					<g>
						<g>
							<path class="st1" d="M441.1,239c-18.7,0-33.9-15.2-33.9-33.9c0-18.7,15.2-33.9,33.9-33.9c18.7,0,33.9,15.2,33.9,33.9
								C475,223.8,459.8,239,441.1,239z M441.1,176.4c-15.8,0-28.7,12.9-28.7,28.7c0,15.8,12.9,28.7,28.7,28.7
								c15.8,0,28.7-12.9,28.7-28.7C469.8,189.3,456.9,176.4,441.1,176.4z"/>
						</g>
					</g>
				</g>
			</g>
			<g>
				<g>
					<g>
						<g>
							<path class="st1" d="M443.8,183.8c-1.7,0.3-3.3,0.7-4.9,1.1c-1.6,0.4-3.2,0.9-4.7,1.5c-1.5,0.6-3,1.2-4.5,1.9
								c-1.5,0.7-2.9,1.5-4.5,2.3c0.9-1.5,2.2-2.8,3.6-3.8c1.4-1.1,3-1.9,4.6-2.5c1.7-0.6,3.4-1,5.2-1.1
								C440.3,183.1,442.1,183.2,443.8,183.8z"/>
						</g>
					</g>
				</g>
			</g>
		</g>
	</g>
	<g>
		<g>
			<g>
				<g>
					<path class="st1" d="M413,272c-1.4-1.4-3.6-1.6-5.3-0.6c-1.5,1-2.4,2.8-2.2,4.6c0,0.1,0.8,8.3-5.2,12.2
						c-9.5,6.2-35.8,15-73.9,8.8c-18.3-3-29.2-10.1-38.9-16.4c-1.9-1.3-3.8-2.4-5.6-3.6c-2.2-1.4-5.6-3.7-9.6-6.4
						c-10.9-7.4-25.8-17.6-38.7-23.8c-3.2-1.6-6.5-3-9.6-4.3c-1.7-0.7-3.5-0.3-4.8,1.1c-0.1,0.1-0.2,0.2-0.2,0.3l-4.5-4.4
						c-0.5-0.5-1.1-0.8-1.7-1c-7.1-2.4-12.4-3.6-20.2-4.7c-48.8-6.7-73.6,1.5-99.8,18c-5.1,3.2-8.7,9-9.6,15.6
						c-3.7,26.9-5.9,61.2,5,71.8c1.4,1.4,3.6,1.7,5.3,0.6c1.5-1,2.4-2.8,2.2-4.6c0-0.1-0.8-8.3,5.2-12.2c4.9-3.2,31.6-18.7,73.6-8.9
						c1.6,0.4,3.3,0.8,5,1.3c1.3,0.4,2.6,0.1,3.7-0.6c0.1,0.2,0.1,0.3,0.1,0.3c0.5,1.1,1.5,2,2.6,2.4c18.6,6.7,56.6,32.6,57.1,32.9
						c23.6,15.1,45.7,24.2,65.7,26.9c8.4,1.2,19,2.5,26,2.8c0.1,0,0.1,0,0.2,0c1.6,0,3-0.9,3.9-2.3c0.1-0.2,0.2-0.4,0.3-0.6l1.8,1.4
						c0.8,0.6,1.8,1,2.7,0.9c3.7-0.1,7.3-0.3,10.8-0.7c24-2.4,40.2-10.8,54.1-19.5c5.1-3.2,8.7-9,9.6-15.6
						C421.7,317,423.9,282.7,413,272z"/>
				</g>
			</g>
			<g>
				<g>
					<g>
						<path class="st0" d="M409.9,275.6c0,0,1.2,11.2-7.4,16.8c-8.6,5.6-35.6,16.2-77,9.5c-22.8-3.7-34.8-13.6-46.1-20.5
							c-8.1-5-30.3-21.6-48-30c-3.1-1.5-6.2-2.9-9.4-4.2l1.9,8.6l-12.8-12.6c-7.1-2.4-12.3-3.5-19.4-4.5c-48.2-6.6-72.3,1.9-97,17.3
							c-4,2.5-6.8,7-7.5,12.2c-2.4,17.4-6.7,57.6,3.6,67.6c0,0-1.2-11.2,7.4-16.8c8.6-5.6,36.1-19,77-9.5c1.7,0.4,3.5,0.9,5.2,1.4
							c0,0,2.2-1.8,3.1-4.3c1.9,2.7,3.6,6.5,3.6,6.5c19.5,7.1,57.9,33.4,57.9,33.4c20.3,13,42.2,23.3,63.9,26.3
							c8.1,1.1,18.7,2.5,25.6,2.8l-4.4-10.6l13,10c27-0.7,44.7-8.3,62.8-19.6c4-2.5,6.8-7,7.5-12.2
							C416,325.8,420.2,285.6,409.9,275.6z"/>
					</g>
				</g>
			</g>
			<g>
				<g>
					<g>
						<path class="st1" d="M183.7,310.1l-2.3-9.4c1,1.2,2,2.4,2.9,3.6c0.5,0.6,0.9,1.2,1.3,1.9c0.4,0.6,0.8,1.3,1.2,2L183.7,310.1z"
							/>
					</g>
				</g>
			</g>
			<g>
				<g>
					<g>
						<path class="st1" d="M93.2,266.3c0.7-1,1.4-1.7,2.2-2.4c0.8-0.7,1.6-1.4,2.4-2c0.8-0.6,1.8-1,2.7-1.4c0.9-0.4,1.9-0.6,2.8-0.6
							c-0.9,0.3-1.8,0.8-2.5,1.3c-0.8,0.6-1.5,1.2-2.2,1.9c-0.7,0.7-1.3,1.5-1.8,2.3c-0.5,0.8-1.1,1.7-1.4,2.5L93.2,266.3z"/>
					</g>
				</g>
				<g>
					<g>
						<path class="st1" d="M97.8,267.1c0.9-0.6,1.8-1,2.8-1.3c0.5-0.2,1-0.3,1.4-0.4c0.5-0.1,1-0.1,1.5-0.2c-0.4,0.2-1,0.4-1.4,0.6
							c-0.4,0.2-0.9,0.5-1.2,0.7c0,0-0.1,0.1-0.1,0.1c-0.8,0.5-1.5,1.1-2.1,1.8c-0.1,0.1-0.2,0.2-0.3,0.3c-0.6,0.6-1.2,1.3-1.7,2
							c-0.1,0.2-0.2,0.3-0.3,0.5c-0.3,0.4-0.6,0.9-0.8,1.3c-0.1,0.2-0.2,0.4-0.4,0.7c0,0,0,0,0,0c0,0-0.4-0.2-0.4-0.2l-1.8-1.4
							c0.7-0.9,1.3-1.5,2-2.2c0,0,0.1-0.1,0.2-0.2c0.1-0.1,0.2-0.2,0.4-0.4c0.2-0.2,0.5-0.4,0.7-0.6
							C96.7,267.7,97.2,267.4,97.8,267.1z"/>
					</g>
				</g>
				<g>
					<g>
						<path class="st1" d="M97.6,272.3c0.9-0.5,1.9-1,2.9-1.3c0.5-0.1,1-0.3,1.5-0.3c0.5-0.1,1-0.1,1.5-0.1
							c-0.4,0.1-1.1,0.4-1.5,0.6c-0.3,0.2-0.9,0.5-1.2,0.7c0,0-0.1,0.1-0.1,0.1c-0.8,0.5-1.5,1.1-2.2,1.7c-0.1,0.1-0.2,0.2-0.3,0.3
							c-0.6,0.6-1.2,1.3-1.8,2c-0.1,0.1-0.2,0.3-0.3,0.5c-0.3,0.4-0.6,0.9-0.9,1.3c-0.1,0.2-0.3,0.4-0.4,0.7c0,0,0,0,0,0
							c0,0-0.4-0.1-0.4-0.1l-1.8-1.4c0.6-0.8,1.2-1.4,1.8-2c0,0,0.2-0.2,0.2-0.2c0.1-0.1,0.3-0.3,0.4-0.4c0.3-0.3,0.6-0.5,0.9-0.7
							C96.4,273,97,272.6,97.6,272.3z"/>
					</g>
				</g>
				<g>
					<g>
						<path class="st1" d="M97.5,277.5c1-0.5,2-0.9,3-1.2c0.5-0.1,1-0.2,1.5-0.3c0.5-0.1,1-0.1,1.5-0.1c-0.3,0.1-1.2,0.4-1.5,0.6
							c-0.3,0.1-1,0.5-1.3,0.7c0,0-0.1,0.1-0.1,0.1c-0.8,0.5-1.6,1-2.3,1.7c-0.1,0.1-0.2,0.2-0.3,0.3c-0.7,0.6-1.3,1.2-1.9,1.9
							c-0.1,0.1-0.2,0.3-0.4,0.4c-0.3,0.4-0.7,0.9-0.9,1.3c-0.1,0.2-0.3,0.4-0.4,0.7c0,0,0,0,0,0c0,0.1-0.4-0.1-0.4,0l-1.9-1.5
							c0.5-0.7,1-1.3,1.6-1.8c0,0,0.2-0.2,0.2-0.3c0.1-0.2,0.3-0.3,0.5-0.5c0.3-0.3,0.6-0.6,1-0.8C96.1,278.2,96.8,277.8,97.5,277.5
							z"/>
					</g>
				</g>
				<g>
					<g>
						<path class="st1" d="M97.3,282.6c1-0.5,2-0.9,3.1-1.1c0.5-0.1,1.1-0.2,1.6-0.3c0.5,0,1.1-0.1,1.6-0.1
							c-0.3,0.1-1.3,0.4-1.5,0.6c-0.2,0.1-1.1,0.5-1.3,0.6c0,0-0.1,0.1-0.1,0.1c-0.8,0.5-1.6,1-2.4,1.6c-0.1,0.1-0.2,0.2-0.3,0.2
							c-0.7,0.6-1.3,1.2-1.9,1.9c-0.1,0.1-0.3,0.3-0.4,0.4c-0.4,0.4-0.7,0.9-1,1.3c-0.2,0.2-0.3,0.4-0.4,0.7c0,0,0,0,0,0
							c-0.1,0.1-0.4,0-0.4,0.1l-1.9-1.5c0.5-0.7,0.9-1.1,1.4-1.6c0,0,0.2-0.3,0.2-0.3c0.2-0.2,0.3-0.4,0.5-0.5
							c0.3-0.3,0.7-0.6,1.1-0.9C95.8,283.4,96.6,283,97.3,282.6z"/>
					</g>
				</g>
				<g>
					<g>
						<path class="st1" d="M97.2,287.8c1-0.5,2.1-0.8,3.2-1c0.5-0.1,1.1-0.2,1.6-0.2c0.5,0,1.1,0,1.6,0c-0.2,0.1-1.4,0.5-1.6,0.6
							c-0.2,0.1-1.2,0.5-1.3,0.6c0,0-0.1,0.1-0.1,0.1c-0.9,0.5-1.7,1-2.5,1.6c-0.1,0.1-0.2,0.2-0.3,0.2c-0.7,0.6-1.4,1.2-2,1.8
							c-0.1,0.1-0.3,0.3-0.4,0.4c-0.4,0.4-0.7,0.8-1,1.3c-0.2,0.2-0.3,0.4-0.4,0.7c0,0,0,0,0,0c-0.1,0.1-0.4,0.1-0.4,0.2l-1.9-1.5
							c0.4-0.6,0.8-1,1.2-1.4c0,0,0.2-0.3,0.3-0.3c0.2-0.2,0.3-0.4,0.5-0.6c0.4-0.4,0.8-0.7,1.2-1C95.5,288.6,96.3,288.2,97.2,287.8
							z"/>
					</g>
				</g>
				<g>
					<g>
						<path class="st1" d="M97.1,293c1.1-0.4,2.2-0.8,3.3-1c0.6-0.1,1.1-0.2,1.7-0.2c0.6,0,1.1,0,1.7,0c-0.2,0.1-1.4,0.5-1.6,0.6
							c-0.1,0.1-1.3,0.5-1.4,0.6c0,0-0.1,0.1-0.2,0.1c-0.9,0.5-1.7,0.9-2.6,1.5c-0.1,0.1-0.2,0.2-0.3,0.2c-0.7,0.5-1.5,1.1-2.1,1.8
							c-0.1,0.1-0.3,0.3-0.4,0.4c-0.4,0.4-0.8,0.8-1.1,1.3c-0.2,0.2-0.3,0.4-0.5,0.7c0,0,0,0,0,0c-0.1,0.1-0.3,0.2-0.4,0.3l-2-1.6
							c0.3-0.5,0.6-0.9,1-1.2c0,0,0.3-0.4,0.3-0.4c0.2-0.2,0.4-0.5,0.6-0.7c0.4-0.4,0.8-0.8,1.3-1.1C95.2,293.8,96.1,293.3,97.1,293
							z"/>
					</g>
				</g>
				<g>
					<g>
						<path class="st1" d="M96.9,298.2c1.1-0.4,2.3-0.7,3.4-0.9c0.6-0.1,1.1-0.1,1.7-0.1c0.6,0,1.1,0,1.7,0.1
							c-0.1,0-1.5,0.5-1.6,0.5c-0.1,0-1.3,0.5-1.4,0.6c0,0-0.1,0.1-0.2,0.1c-0.9,0.4-1.8,0.9-2.7,1.5c-0.1,0.1-0.2,0.1-0.3,0.2
							c-0.8,0.5-1.5,1.1-2.2,1.7c-0.1,0.1-0.3,0.3-0.4,0.4c-0.4,0.4-0.8,0.8-1.1,1.3c-0.2,0.2-0.3,0.4-0.5,0.7c0,0,0,0,0,0
							c-0.1,0.2-0.3,0.3-0.4,0.4l-2-1.6c0.3-0.4,0.5-0.7,0.8-1c0,0,0.3-0.4,0.3-0.4c0.2-0.3,0.4-0.5,0.6-0.7
							c0.4-0.4,0.9-0.8,1.4-1.2C94.9,299,95.9,298.5,96.9,298.2z"/>
					</g>
				</g>
				<g>
					<g>
						<path class="st1" d="M96.8,303.4c1.2-0.4,2.3-0.7,3.5-0.8c0.6,0,1.2-0.1,1.8-0.1c0.6,0,1.2,0,1.8,0.1c-0.1,0-1.6,0.5-1.7,0.5
							c0,0-1.4,0.5-1.5,0.6c0,0-0.2,0.1-0.2,0.1c-0.9,0.4-1.9,0.9-2.7,1.4c-0.1,0.1-0.2,0.1-0.3,0.2c-0.8,0.5-1.6,1.1-2.3,1.7
							c-0.2,0.1-0.3,0.3-0.5,0.4c-0.4,0.4-0.8,0.8-1.2,1.2c-0.2,0.2-0.4,0.4-0.5,0.7c0,0,0,0,0,0c-0.1,0.2-0.3,0.4-0.4,0.5l-2.1-1.6
							c0.2-0.4,0.4-0.6,0.5-0.8c0,0,0.3-0.4,0.3-0.4c0.2-0.3,0.4-0.6,0.7-0.8c0.5-0.5,1-0.9,1.5-1.3
							C94.6,304.2,95.7,303.7,96.8,303.4z"/>
					</g>
				</g>
				<g>
					<g>
						<path class="st1" d="M90.2,313.5c0.2-0.3,0.2-0.4,0.3-0.6l0.3-0.5c0.2-0.3,0.4-0.6,0.7-0.8c0.5-0.5,1-1,1.6-1.3
							c1.1-0.8,2.3-1.3,3.5-1.6c1.2-0.4,2.4-0.6,3.6-0.7c0.6,0,1.2-0.1,1.8-0.1c0.6,0,1.2,0.1,1.8,0.2l-1.7,0.5l-1.7,0.6
							c-1.1,0.5-2.2,0.9-3.2,1.5c-1,0.6-2,1.3-2.9,2c-0.4,0.4-0.9,0.8-1.2,1.2c-0.2,0.2-0.4,0.4-0.5,0.7c-0.1,0.2-0.3,0.5-0.4,0.6
							L90.2,313.5z"/>
					</g>
				</g>
			</g>
			<g>
				<g>
					<g>
						<g>
							<path class="st1" d="M93.3,266.1c-0.9,3.6-1.4,7.2-1.9,10.8c-0.3,2.4-0.6,4.8-0.9,7.2c-0.2,2.4-0.5,4.8-0.7,7.2
								c-0.3,4.8-0.6,9.7-0.6,14.5c0,4.8,0,9.8,1.4,14.5c0.6-4.9,0.6-9.6,0.8-14.4c0.2-4.8,0.6-9.6,0.9-14.4
								c0.3-4.8,0.8-9.6,1.2-14.4c0.4-4.1,0.8-8.1,0.8-12.2C94,265.4,93.6,265.8,93.3,266.1z"/>
						</g>
					</g>
				</g>
				<g>
					<g>
						<g>
							<path class="st1" d="M97.6,264.4c-1.1,1.4-2.5,5.1-2.5,5.1s1.1,1.4,0.4,2.9c-0.7,1.5-0.9,2.5-0.9,2.5s1.1,1.6,0.5,2.9
								c-0.6,1.3-1.4,4-1.4,4s2-0.3,1.3,0.8c-0.6,1.2-1.1,2.9-1.1,2.9s1.2,1.4,0.5,2.7c-0.6,1.3-1,2.7-1,2.7s1.5,1.2,0.9,2.2
								c-0.6,1-1.1,2.6-1.1,2.6s1.5,1.2,0.8,2.5c-0.7,1.3-1.3,2.6-1.3,2.6s1.5,1.6,0.7,3c-0.8,1.4-1,2.2-1,2.2s2.3,0.4,1,2.5
								c-1.3,2.1-1.4,3.2-1.4,3.2s1.6,1.3,0.8,2.4c-1.4,1.9-2.3,4.6-2.3,4.6l-0.2-3c0,0,0.1-14.2,0.2-14.6s1.4-18.7,1.4-18.7l1.4-13
								l1.5-4L97.6,264.4z"/>
						</g>
					</g>
				</g>
			</g>
			<g>
				<g>
					<g>
						<path class="st1" d="M407.7,345c-0.7,1-1.4,1.7-2.2,2.4c-0.8,0.7-1.6,1.4-2.4,2c-0.8,0.6-1.8,1-2.7,1.4
							c-0.9,0.4-1.9,0.6-2.8,0.6c0.9-0.3,1.8-0.8,2.5-1.3c0.8-0.6,1.5-1.2,2.2-1.9c0.7-0.7,1.3-1.5,1.8-2.3c0.5-0.8,1.1-1.7,1.4-2.5
							L407.7,345z"/>
					</g>
				</g>
				<g>
					<g>
						<path class="st1" d="M408,339.8c-0.7,0.9-1.3,1.5-2,2.2c0,0-0.1,0.1-0.2,0.2c-0.1,0.1-0.2,0.2-0.4,0.4
							c-0.2,0.2-0.5,0.4-0.7,0.6c-0.5,0.4-1,0.7-1.5,1c-0.9,0.6-1.8,1-2.8,1.3c-0.5,0.2-1,0.3-1.4,0.4c-0.5,0.1-1,0.1-1.5,0.2
							c0.4-0.2,1-0.4,1.4-0.6c0.4-0.2,0.9-0.5,1.2-0.7c0,0,0.1-0.1,0.1-0.1c0.8-0.5,1.5-1.1,2.1-1.8c0.1-0.1,0.2-0.2,0.3-0.3
							c0.6-0.6,1.2-1.3,1.7-2c0.1-0.2,0.2-0.3,0.3-0.5c0.3-0.4,0.6-0.9,0.8-1.3c0.1-0.2,0.2-0.4,0.4-0.7c0,0,0,0,0,0
							c0,0,0.4,0.2,0.4,0.2L408,339.8z"/>
					</g>
				</g>
				<g>
					<g>
						<path class="st1" d="M408.4,334.6c-0.6,0.8-1.2,1.4-1.8,2c0,0-0.2,0.2-0.2,0.2c-0.1,0.1-0.3,0.3-0.4,0.4
							c-0.3,0.3-0.6,0.5-0.9,0.7c-0.6,0.4-1.2,0.8-1.8,1.1c-0.9,0.5-1.9,1-2.9,1.3c-0.5,0.1-1,0.3-1.5,0.3c-0.5,0.1-1,0.1-1.5,0.1
							c0.4-0.1,1.1-0.4,1.5-0.6c0.3-0.2,0.9-0.5,1.2-0.7c0,0,0.1-0.1,0.1-0.1c0.8-0.5,1.5-1.1,2.2-1.7c0.1-0.1,0.2-0.2,0.3-0.3
							c0.6-0.6,1.2-1.3,1.8-2c0.1-0.1,0.2-0.3,0.3-0.5c0.3-0.4,0.6-0.9,0.9-1.3c0.1-0.2,0.3-0.4,0.4-0.7c0,0,0,0,0,0
							c0,0,0.4,0.1,0.4,0.1L408.4,334.6z"/>
					</g>
				</g>
				<g>
					<g>
						<path class="st1" d="M408.7,329.3c-0.5,0.7-1,1.3-1.6,1.8c0,0-0.2,0.2-0.2,0.3c-0.1,0.2-0.3,0.3-0.5,0.5
							c-0.3,0.3-0.6,0.6-1,0.8c-0.6,0.5-1.3,0.9-2,1.2c-1,0.5-2,0.9-3,1.2c-0.5,0.1-1,0.2-1.5,0.3c-0.5,0.1-1,0.1-1.5,0.1
							c0.3-0.1,1.2-0.4,1.5-0.6c0.3-0.1,1-0.5,1.3-0.7c0,0,0.1-0.1,0.1-0.1c0.8-0.5,1.6-1,2.3-1.7c0.1-0.1,0.2-0.2,0.3-0.3
							c0.7-0.6,1.3-1.2,1.9-1.9c0.1-0.1,0.2-0.3,0.4-0.4c0.3-0.4,0.7-0.9,0.9-1.3c0.1-0.2,0.3-0.4,0.4-0.7c0,0,0,0,0,0
							c0-0.1,0.4,0.1,0.4,0L408.7,329.3z"/>
					</g>
				</g>
				<g>
					<g>
						<path class="st1" d="M409,324.1c-0.5,0.7-0.9,1.1-1.4,1.6c0,0-0.2,0.3-0.2,0.3c-0.2,0.2-0.3,0.4-0.5,0.5
							c-0.3,0.3-0.7,0.6-1.1,0.9c-0.7,0.5-1.5,0.9-2.3,1.3c-1,0.5-2,0.9-3.1,1.1c-0.5,0.1-1.1,0.2-1.6,0.3c-0.5,0-1.1,0.1-1.6,0.1
							c0.3-0.1,1.3-0.4,1.5-0.6c0.2-0.1,1.1-0.5,1.3-0.6c0,0,0.1-0.1,0.1-0.1c0.8-0.5,1.6-1,2.4-1.6c0.1-0.1,0.2-0.2,0.3-0.2
							c0.7-0.6,1.3-1.2,1.9-1.9c0.1-0.1,0.3-0.3,0.4-0.4c0.4-0.4,0.7-0.9,1-1.3c0.2-0.2,0.3-0.4,0.4-0.7c0,0,0,0,0,0
							c0.1-0.1,0.4,0,0.4-0.1L409,324.1z"/>
					</g>
				</g>
				<g>
					<g>
						<path class="st1" d="M409.4,318.8c-0.4,0.6-0.8,1-1.2,1.4c0,0-0.2,0.3-0.3,0.3c-0.2,0.2-0.3,0.4-0.5,0.6
							c-0.4,0.4-0.8,0.7-1.2,1c-0.8,0.6-1.7,1-2.5,1.3c-1,0.5-2.1,0.8-3.2,1c-0.5,0.1-1.1,0.2-1.6,0.2c-0.5,0-1.1,0-1.6,0
							c0.2-0.1,1.4-0.5,1.6-0.6c0.2-0.1,1.2-0.5,1.3-0.6c0,0,0.1-0.1,0.1-0.1c0.9-0.5,1.7-1,2.5-1.6c0.1-0.1,0.2-0.2,0.3-0.2
							c0.7-0.6,1.4-1.2,2-1.8c0.1-0.1,0.3-0.3,0.4-0.4c0.4-0.4,0.7-0.8,1-1.3c0.2-0.2,0.3-0.4,0.4-0.7c0,0,0,0,0,0
							c0.1-0.1,0.4-0.1,0.4-0.2L409.4,318.8z"/>
					</g>
				</g>
				<g>
					<g>
						<path class="st1" d="M409.7,313.6c-0.3,0.5-0.6,0.8-1,1.2c0,0-0.3,0.4-0.3,0.4c-0.2,0.2-0.4,0.5-0.6,0.7
							c-0.4,0.4-0.8,0.8-1.3,1.1c-0.9,0.6-1.8,1.1-2.8,1.4c-1.1,0.4-2.2,0.8-3.3,1c-0.6,0.1-1.1,0.2-1.7,0.2c-0.6,0-1.1,0-1.7,0
							c0.2-0.1,1.4-0.5,1.6-0.6c0.1-0.1,1.3-0.5,1.4-0.6c0,0,0.1-0.1,0.1-0.1c0.9-0.5,1.8-0.9,2.6-1.5c0.1-0.1,0.2-0.2,0.3-0.2
							c0.7-0.5,1.5-1.1,2.1-1.8c0.1-0.1,0.3-0.3,0.4-0.4c0.4-0.4,0.8-0.8,1.1-1.3c0.2-0.2,0.3-0.4,0.5-0.7c0,0,0,0,0,0
							c0.1-0.1,0.3-0.2,0.4-0.3L409.7,313.6z"/>
					</g>
				</g>
				<g>
					<g>
						<path class="st1" d="M410,308.4c-0.3,0.4-0.5,0.7-0.8,1c0,0-0.3,0.4-0.3,0.4c-0.2,0.3-0.4,0.5-0.6,0.7
							c-0.4,0.4-0.9,0.8-1.4,1.2c-1,0.7-2,1.1-3,1.5c-1.1,0.4-2.3,0.7-3.4,0.9c-0.6,0.1-1.1,0.1-1.7,0.1c-0.6,0-1.1,0-1.7-0.1
							c0.1,0,1.5-0.5,1.6-0.5c0.1,0,1.3-0.5,1.4-0.6c0,0,0.1-0.1,0.2-0.1c0.9-0.4,1.8-0.9,2.7-1.5c0.1-0.1,0.2-0.1,0.3-0.2
							c0.8-0.5,1.5-1.1,2.2-1.7c0.1-0.1,0.3-0.3,0.4-0.4c0.4-0.4,0.8-0.8,1.1-1.3c0.2-0.2,0.3-0.4,0.5-0.7c0,0,0,0,0,0
							c0.1-0.2,0.3-0.3,0.4-0.4L410,308.4z"/>
					</g>
				</g>
				<g>
					<g>
						<path class="st1" d="M410.4,303.1c-0.2,0.4-0.4,0.6-0.5,0.8c0,0-0.3,0.4-0.3,0.4c-0.2,0.3-0.4,0.6-0.7,0.8
							c-0.5,0.5-1,0.9-1.5,1.3c-1,0.7-2.1,1.2-3.3,1.6c-1.2,0.4-2.3,0.7-3.5,0.8c-0.6,0-1.2,0.1-1.8,0.1c-0.6,0-1.2,0-1.8-0.1
							c0.1,0,1.6-0.5,1.7-0.5c0,0,1.4-0.5,1.5-0.6c0,0,0.2-0.1,0.2-0.1c0.9-0.4,1.9-0.9,2.7-1.4c0.1-0.1,0.2-0.1,0.3-0.2
							c0.8-0.5,1.6-1.1,2.3-1.7c0.2-0.1,0.3-0.3,0.5-0.4c0.4-0.4,0.8-0.8,1.2-1.2c0.2-0.2,0.4-0.4,0.5-0.7c0,0,0,0,0,0
							c0.1-0.2,0.3-0.4,0.4-0.5L410.4,303.1z"/>
					</g>
				</g>
				<g>
					<g>
						<path class="st1" d="M410.7,297.9c-0.2,0.3-0.2,0.4-0.3,0.6L410,299c-0.2,0.3-0.4,0.6-0.7,0.8c-0.5,0.5-1,1-1.6,1.3
							c-1.1,0.8-2.3,1.3-3.5,1.6c-1.2,0.4-2.4,0.6-3.6,0.7c-0.6,0-1.2,0.1-1.8,0.1c-0.6,0-1.2-0.1-1.8-0.2l1.7-0.5l1.7-0.6
							c1.1-0.5,2.2-0.9,3.2-1.5c1-0.6,2-1.3,2.9-2c0.4-0.4,0.9-0.8,1.2-1.2c0.2-0.2,0.4-0.4,0.5-0.7c0.1-0.2,0.3-0.5,0.4-0.6
							L410.7,297.9z"/>
					</g>
				</g>
			</g>
			<g>
				<g>
					<g>
						<path class="st1" d="M353.9,376.3c-3.4,0.3-6.9,0.6-10.6,0.7c-0.4,0-0.7-0.1-1-0.3l-7.7-5.9l1.6,3.9c0.3,0.6,0.2,1.4-0.1,2
							c-0.3,0.6-0.9,0.9-1.5,0.9c-6.8-0.3-17.4-1.6-25.7-2.8c-19.6-2.7-41.3-11.6-64.6-26.5c-0.4-0.3-38.5-26.3-57.6-33.2
							c-0.4-0.2-0.8-0.5-1-1c0,0-0.9-1.9-2-3.9c-1,1.3-2,2.2-2.1,2.3c-0.4,0.4-1,0.5-1.5,0.3c-1.7-0.5-3.4-1-5.1-1.3
							c-43.1-10.1-70.7,5.9-75.7,9.3c-7.4,4.8-6.5,14.4-6.5,14.8c0.1,0.8-0.3,1.6-0.9,2c-0.6,0.4-1.4,0.3-2-0.2
							c-10.6-10.4-7.2-48-4.2-69.5c0.8-5.8,3.9-10.9,8.4-13.6c25.7-16.1,50-24.1,98-17.6c7.6,1,12.8,2.2,19.7,4.6
							c0.2,0.1,0.5,0.2,0.6,0.4l8.6,8.5l-0.5-2.4c-0.2-0.7,0-1.5,0.5-2c0.5-0.5,1.2-0.7,1.8-0.4c3.1,1.3,6.3,2.7,9.4,4.2
							c12.8,6.1,27.6,16.2,38.4,23.6c4,2.7,7.5,5.1,9.7,6.5c1.8,1.1,3.6,2.3,5.5,3.5c9.9,6.4,21.1,13.7,39.9,16.8
							c39,6.4,66-2.8,75.9-9.2c7.4-4.8,6.5-14.4,6.5-14.8c-0.1-0.8,0.3-1.6,0.9-2c0.6-0.4,1.4-0.3,2,0.2c10.6,10.4,7.2,48,4.2,69.5
							c-0.8,5.8-3.9,10.9-8.4,13.6C391.1,367,375.7,374.1,353.9,376.3z M343.8,372.9c26.6-0.8,43.8-8.3,61.4-19.3
							c3.5-2.2,5.9-6.2,6.6-10.7c4.1-29.5,3.9-51.7-0.4-61.7c-0.7,4.1-2.7,9.5-8,12.9c-10.2,6.7-38.2,16.2-78.1,9.7
							c-19.5-3.2-31-10.7-41.2-17.3c-1.9-1.2-3.7-2.4-5.5-3.5c-2.3-1.4-5.7-3.7-9.9-6.6c-10.7-7.3-25.4-17.3-37.9-23.4
							c-2.1-1-4.1-1.9-6.1-2.8l1.1,4.8c0.2,0.9-0.1,1.8-0.8,2.2c-0.7,0.5-1.5,0.4-2.1-0.2l-12.6-12.3c-6.5-2.2-11.5-3.3-18.8-4.3
							c-47.1-6.4-70.8,1.4-95.9,17.1c-3.5,2.2-5.9,6.2-6.6,10.7c-4.1,29.5-3.9,51.7,0.4,61.7c0.7-4.1,2.7-9.5,8-12.9
							c5.3-3.4,33.8-20.1,78.2-9.7c1.4,0.3,2.9,0.7,4.4,1.1c0.6-0.6,1.5-1.7,1.9-2.9c0.2-0.6,0.8-1.1,1.4-1.2
							c0.6-0.1,1.2,0.2,1.6,0.7c1.5,2.1,2.8,4.8,3.4,6.1c19.7,7.4,56.1,32.2,57.6,33.3c22.8,14.6,44.1,23.4,63.2,26
							c7.2,1,15.9,2.1,22.5,2.6l-3.1-7.5c-0.3-0.8-0.2-1.8,0.4-2.4c0.6-0.6,1.5-0.7,2.1-0.2L343.8,372.9z"/>
					</g>
				</g>
			</g>
			<g>
				<g>
					<g>
						<path class="st1" d="M410.3,291c-0.6,4.9-0.6,9.6-0.8,14.4c-0.2,4.8-0.6,9.6-0.9,14.4c-0.3,4.8-0.8,9.6-1.2,14.4
							c-0.4,4-0.8,8.1-0.8,12.2c0,0,0.1,0,0.1-0.1c0,0,0.1-0.1,0.2-0.1c0.2-0.2,0.5-0.5,0.7-0.7c0.9-3.6,1.5-7.3,1.9-11
							c0.3-2.4,0.6-4.8,0.9-7.2c0.2-2.4,0.5-4.8,0.7-7.2c0.3-4.8,0.6-9.7,0.6-14.5C411.7,300.6,411.7,295.7,410.3,291z"/>
					</g>
				</g>
			</g>
			<g>
				<g>
					<g>
						<path class="st1" d="M403.4,346.9c1.1-1.4,2.5-5.1,2.5-5.1s-1.1-1.4-0.4-2.9c0.7-1.5,0.9-2.5,0.9-2.5s-1.1-1.6-0.5-2.9
							c0.6-1.3,1.4-4,1.4-4s-2,0.3-1.3-0.8c0.6-1.2,1.1-2.9,1.1-2.9s-1.2-1.4-0.5-2.7c0.6-1.3,1-2.7,1-2.7s-1.5-1.2-0.9-2.2
							c0.6-1,1.1-2.6,1.1-2.6s-1.5-1.2-0.8-2.5s1.3-2.6,1.3-2.6s-1.5-1.6-0.7-3c0.8-1.4,1-2.2,1-2.2s-2.3-0.4-1-2.5
							c1.3-2.1,1.4-3.2,1.4-3.2s-1.6-1.3-0.8-2.4c1.4-1.9,2.3-4.6,2.3-4.6l0.2,3c0,0-0.1,14.2-0.2,14.6s-1.4,18.7-1.4,18.7l-1.4,13
							l-1.5,4L403.4,346.9z"/>
					</g>
				</g>
			</g>
			<g>
				<g>
					<g>
						<path class="st0" d="M410.5,288.1c-0.6-0.5-0.9-1.1-1-1.7c-0.1-0.6-0.3-1.2-0.4-1.7c-0.1-0.6-0.2-1.2-0.4-1.7
							c-0.2-0.6-0.4-1.1-0.6-1.6c-0.5-1-1.1-1.7-1.9-2.3c-0.8-0.6-1.8-0.8-2.8-1l0-3l1,0.1c0.3,0,0.7,0.1,1,0.2l1,0.3l1,0.5
							c1.3,0.7,2.4,1.9,3.2,3.2c0.8,1.3,1.3,2.7,1.7,4.2c0.4,1.5,0.6,2.9,0.7,4.5L410.5,288.1z"/>
					</g>
				</g>
			</g>
			<g>
				<g>
					<g>
						<g>
							<path class="st1" d="M405.9,286.4c0.5-0.6,0.7-1.1,0.7-1.8c0-0.7-0.4-1.5-1-2.1c-0.6-0.6-1.4-1.1-2.2-1.3
								c-0.8-0.2-1.8-0.2-2.8-0.1c-2,0.2-4,0.8-5.9,1.5c-2,0.7-3.9,1.5-5.8,2.5c1.7-1.3,3.5-2.6,5.4-3.6c1.9-1,3.8-2,6-2.6
								c1.1-0.3,2.2-0.5,3.5-0.4c1.2,0.1,2.5,0.6,3.5,1.5c1.1,0.8,2.1,2.1,2.4,3.9c0.2,0.9,0.2,1.9-0.1,2.8
								c-0.3,0.9-0.8,1.5-1.3,2.1L405.9,286.4z"/>
						</g>
					</g>
				</g>
				<g>
					<g>
						<g>
							<path class="st1" d="M403.6,288.8c0,0,0-0.3,0-0.4c0-0.2,0-0.3,0-0.5c0-0.3-0.1-0.7-0.2-1c-0.2-0.6-0.5-1.1-0.9-1.5
								c-0.5-0.4-1.1-0.7-1.8-0.8c-0.7-0.1-1.5-0.1-2.2,0c-1.6,0.2-3.2,0.6-4.7,1.1c-1.6,0.5-3.1,1.1-4.7,1.9c1.4-1.1,2.8-2,4.3-2.9
								c1.5-0.8,3.1-1.6,4.8-2.1c1.7-0.5,3.7-0.9,5.7,0.2c1,0.5,1.9,1.5,2.4,2.7c0.3,0.6,0.5,1.2,0.6,1.8c0,0.3,0,0.6,0,0.9
								c0,0.3,0,0.6,0,1L403.6,288.8z"/>
						</g>
					</g>
				</g>
				<g>
					<g>
						<g>
							<path class="st1" d="M401.4,291.5c0-0.2-0.1-0.5-0.2-0.8c-0.1-0.3-0.2-0.6-0.3-0.8c-0.3-0.5-0.6-1-0.9-1.3
								c-0.4-0.3-0.7-0.6-1.3-0.7c-0.6-0.1-1.2-0.1-1.8-0.1c-2.5,0.1-5.1,0.8-7.6,1.8c2.3-1.6,4.7-3,7.4-3.8
								c0.7-0.2,1.4-0.4,2.1-0.4c0.8-0.1,1.7,0.1,2.5,0.5c0.8,0.4,1.5,1.1,2,1.7c0.3,0.4,0.6,0.7,0.8,1.1c0.2,0.4,0.3,0.8,0.5,1.4
								L401.4,291.5z"/>
						</g>
					</g>
				</g>
				<g>
					<g>
						<g>
							<path class="st1" d="M399.3,293.9c0-0.1-0.1-0.3-0.2-0.5c-0.1-0.2-0.2-0.4-0.3-0.5c-0.2-0.3-0.5-0.6-0.9-0.9
								c-0.3-0.2-0.7-0.4-1.1-0.5c-0.4-0.1-0.9-0.2-1.4-0.2c-1.9-0.1-4,0.2-6,0.8c1.8-1.2,3.7-2.2,5.9-2.8c0.5-0.1,1.1-0.2,1.7-0.3
								c0.6,0,1.3,0,1.9,0.2c0.6,0.2,1.2,0.5,1.8,0.9c0.3,0.2,0.6,0.4,0.8,0.7c0.3,0.3,0.4,0.5,0.7,1L399.3,293.9z"/>
						</g>
					</g>
				</g>
				<g>
					<g>
						<g>
							<path class="st1" d="M397.7,296.6c-0.2-0.2-0.5-0.4-0.8-0.6c-0.3-0.2-0.6-0.4-0.9-0.6c-0.6-0.3-1.3-0.6-2-0.8
								c-0.7-0.2-1.4-0.4-2.2-0.4c-0.7-0.1-1.5,0-2.3,0.1c0.7-0.4,1.4-0.8,2.2-1.1c0.8-0.3,1.6-0.5,2.4-0.6c0.8-0.1,1.7-0.2,2.5-0.1
								c0.4,0,0.8,0.1,1.3,0.1c0.4,0.1,0.8,0.1,1.4,0.3L397.7,296.6z"/>
						</g>
					</g>
				</g>
			</g>
			<g>
				<g>
					<g>
						<path class="st1" d="M332.8,369.3l-11.5-10.9c1.2,0.4,2.4,0.9,3.6,1.4c1.2,0.5,2.3,1.1,3.5,1.7l1.7,0.9c0.5,0.3,1.1,0.6,1.6,1
							c1.1,0.7,2.1,1.5,3,2.4L332.8,369.3z"/>
					</g>
				</g>
			</g>
			<g>
				<g>
					<g>
						<path class="st1" d="M220.4,320.2c7.8,4.5,15.4,9.3,23,13.9c3.8,2.3,7.7,4.6,11.5,6.9c3.9,2.3,7.7,4.5,11.6,6.7
							c-4.2-1.4-8.2-3.3-12.2-5.3c-4-2-7.9-4.2-11.7-6.6c-3.8-2.4-7.6-4.8-11.3-7.4C227.6,325.8,223.9,323.1,220.4,320.2z"/>
					</g>
				</g>
			</g>
			<g>
				<g>
					<g>
						<path class="st1" d="M222.4,251.4c1.1,1.4,2.1,2.9,3,4.5c1,1.6,1.9,3.2,2.6,5.1c-1.6-0.8-3-1.9-4.3-3.1
							c-1.3-1.1-2.6-2.3-3.8-3.6L222.4,251.4z"/>
					</g>
				</g>
			</g>
			<g>
				<g>
					<g>
						<path class="st0" d="M90.4,323.3c0.6,0.5,0.9,1.1,1,1.7c0.1,0.6,0.3,1.2,0.4,1.7c0.1,0.6,0.2,1.2,0.4,1.7
							c0.2,0.6,0.4,1.1,0.6,1.6c0.5,1,1.1,1.7,1.9,2.3c0.8,0.6,1.8,0.8,2.8,1l0,3l-1-0.1c-0.3,0-0.7-0.1-1-0.2l-1-0.3l-1-0.5
							c-1.3-0.7-2.4-1.9-3.2-3.2c-0.8-1.3-1.3-2.7-1.7-4.2c-0.4-1.5-0.6-2.9-0.7-4.5L90.4,323.3z"/>
					</g>
				</g>
			</g>
			<g>
				<g>
					<g>
						<g>
							<path class="st1" d="M95,325c-0.5,0.6-0.7,1.1-0.7,1.8c0,0.7,0.4,1.5,1,2.1c0.6,0.6,1.4,1.1,2.2,1.3c0.8,0.2,1.8,0.2,2.8,0.1
								c2-0.2,4-0.8,5.9-1.5c2-0.7,3.9-1.5,5.8-2.5c-1.7,1.3-3.5,2.6-5.4,3.6c-1.9,1-3.8,2-6,2.6c-1.1,0.3-2.2,0.5-3.5,0.4
								c-1.2-0.1-2.5-0.6-3.5-1.5c-1.1-0.8-2.1-2.1-2.4-3.9c-0.2-0.9-0.2-1.9,0.1-2.8c0.3-0.9,0.8-1.5,1.3-2.1L95,325z"/>
						</g>
					</g>
				</g>
				<g>
					<g>
						<g>
							<path class="st1" d="M97.3,322.6c0,0,0,0.3,0,0.4c0,0.2,0,0.3,0,0.5c0,0.3,0.1,0.7,0.2,1c0.2,0.6,0.5,1.1,0.9,1.5
								c0.5,0.4,1.1,0.7,1.8,0.8c0.7,0.1,1.5,0.1,2.2,0c1.6-0.2,3.2-0.6,4.7-1.1c1.6-0.5,3.1-1.1,4.7-1.9c-1.4,1.1-2.8,2-4.3,2.9
								c-1.5,0.8-3.1,1.6-4.8,2.1c-1.7,0.5-3.7,0.9-5.7-0.2c-1-0.5-1.9-1.5-2.4-2.7c-0.3-0.6-0.5-1.2-0.6-1.8c0-0.3,0-0.6,0-0.9
								c0-0.3,0-0.6,0-1L97.3,322.6z"/>
						</g>
					</g>
				</g>
				<g>
					<g>
						<g>
							<path class="st1" d="M99.5,319.8c0,0.2,0.1,0.5,0.2,0.8c0.1,0.3,0.2,0.6,0.3,0.8c0.2,0.5,0.6,1,0.9,1.3
								c0.4,0.3,0.7,0.6,1.3,0.7c0.6,0.1,1.2,0.1,1.8,0.1c2.5-0.1,5.1-0.8,7.6-1.8c-2.3,1.6-4.7,3-7.4,3.8c-0.7,0.2-1.4,0.4-2.1,0.4
								c-0.8,0.1-1.7-0.1-2.5-0.5c-0.8-0.4-1.5-1.1-2-1.7c-0.3-0.4-0.6-0.7-0.8-1.1c-0.2-0.4-0.3-0.8-0.5-1.4L99.5,319.8z"/>
						</g>
					</g>
				</g>
				<g>
					<g>
						<g>
							<path class="st1" d="M101.6,317.5c0,0.1,0.1,0.3,0.2,0.5c0.1,0.2,0.2,0.4,0.3,0.5c0.2,0.3,0.5,0.6,0.9,0.9
								c0.3,0.2,0.7,0.4,1.1,0.5c0.4,0.1,0.9,0.2,1.4,0.2c1.9,0.1,4-0.2,6-0.8c-1.8,1.2-3.7,2.2-5.9,2.8c-0.5,0.1-1.1,0.2-1.7,0.3
								c-0.6,0-1.3,0-1.9-0.2c-0.6-0.2-1.2-0.5-1.8-0.9c-0.3-0.2-0.6-0.4-0.8-0.7c-0.3-0.3-0.4-0.5-0.7-1L101.6,317.5z"/>
						</g>
					</g>
				</g>
				<g>
					<g>
						<g>
							<path class="st1" d="M103.2,314.8c0.2,0.2,0.5,0.4,0.8,0.6c0.3,0.2,0.6,0.4,0.9,0.6c0.6,0.3,1.3,0.6,2,0.8
								c0.7,0.2,1.4,0.4,2.2,0.4c0.7,0.1,1.5,0,2.3-0.1c-0.7,0.4-1.4,0.8-2.2,1.1c-0.8,0.3-1.6,0.5-2.4,0.6
								c-0.8,0.1-1.7,0.2-2.5,0.1c-0.4,0-0.8-0.1-1.3-0.1c-0.4-0.1-0.8-0.1-1.4-0.3L103.2,314.8z"/>
						</g>
					</g>
				</g>
			</g>
		</g>
	</g>
	<g>
		<g>
			<path class="st1" d="M159.5,282.5c-0.4,2.5,0.8,3.3,2.3,3.6c2.6,0.4,3.6-0.4,3.9-2c0.7-3.8-1-8-2.7-10.8c-1-1.6-1.8-2.3-2.8-2.6
				c0.5-0.3,0.6-0.9,0.5-1.2c-0.3-0.4-1-0.9-1.8-1.1c0.6-0.5,0.8-1.4,0.1-3.1c-0.8-1.9-2.1-6.3-1.4-9.8c0.5-2.9,3.7-5,9.9-4
				c1.1,0.2,1.9,0.5,2.8,0.7c0.8,0.2,1.6,0.5,2.5,0.7c0.7,0.1,1.6,0,2-0.1c0.4,0.7,1.5,1.3,2.5,1.4c-0.5,0.3-1,1.5-1.2,2.5l-0.7,4
				c-0.3,1.7-0.1,2.5,0.6,3.1c-2.4,0.1-3.3,0.6-3.7,3.5l-0.7-0.1c0.5-3,0-3.6-2.4-4.5c0.7-0.5,1.1-1,1.5-2.9l0.4-2.6
				c0.3-1.6-1.1-2.7-3.1-3.1c-1.9-0.3-2.7,0.4-3,1.7c-0.3,1.9,0.3,5.5,0.7,6.9c0.9,2.7,2.9,6.5,5.2,7.5c-0.7,0.2-1,0.8-0.8,1.1
				c0.2,0.4,1,0.7,1.8,0.9c-0.7,0.5-1.1,1.5-0.1,3.8c0.7,1.8,1.8,5.7,1.3,8.3c-0.5,3-3.9,5.8-10.6,4.6c-1.5-0.3-2.6-0.5-3.5-0.8
				c-0.9-0.3-1.7-0.5-2.5-0.7c-0.8-0.1-1.2,0-1.8,0.2c-0.5-0.6-1.2-1.1-2.5-1.5c0.6-0.3,1.1-0.8,1.4-2.4l0.9-5.2
				c0.2-1.3,0-2.3-0.5-2.8c2.6,0,3.5-0.3,4-3.1l0.6,0.1c-0.5,2.8,0.4,3.5,2.5,4.3c-0.5,0.3-0.8,1-1.1,2.5L159.5,282.5z"/>
		</g>
		<g>
			<path class="st1" d="M190.1,291.2c-0.2,0.5,0.1,0.8,0.4,1c0.3,0.1,0.7,0.1,0.8-0.3l0.6-1.4l0.6,0.2l-0.7,4.4
				c-0.8-0.3-2.4-0.3-2.6,0c-0.3-0.2-0.8-0.6-1.4-0.9c-0.6-0.3-1.3-0.7-2.2-1c-1.7-0.7-3-1-3.6-0.9c-0.1-0.5-1.7-1.8-2.7-2.2
				l2.4-3.8l0.7,0.3l-0.6,1.5c-0.2,0.5-0.1,0.7,0.3,0.9c0.4,0.2,0.6,0,0.8-0.5l3.7-9.3c0.9-2.3,0.8-3.5,0.1-4.3
				c0.8,0,1.3-0.1,1.4-0.5c0.2-0.4-0.1-1-0.6-1.5c0.8-0.1,1.9-0.6,3-3.6l3.5-8.8c0.3-0.6,0.2-0.8-0.1-0.9c-0.4-0.2-0.6,0-0.8,0.4
				l-0.5,1.3l-0.8-0.3l0.9-4.2c0.8,0.3,2.2,0.5,2.6,0.3c0.4,0.3,0.9,0.6,1.4,0.9c0.7,0.4,1.3,0.7,2.1,1c1.5,0.6,3.1,1,3.9,1
				c0.2,0.4,1.7,1.5,2.6,1.8l-2.8,3.4l-0.6-0.2l0.6-1.5c0.2-0.4,0-0.6-0.4-0.8c-0.6-0.2-0.9,0-1.2,0.8l-4,10.1c-0.8,2-0.1,3,2.1,3.9
				c2.4,0.9,3.7,0.4,4.4-1.3l4.2-10.7c0.2-0.4,0.1-0.5-0.3-0.7c-0.3-0.1-0.5-0.1-0.6,0.4l-0.7,1.6l-0.7-0.3l1.1-4.3
				c1,0.4,2.4,0.5,2.8,0.4c0.2,0.2,0.5,0.4,1,0.7c0.5,0.3,1.2,0.7,2.1,1c1.8,0.7,3,1,3.8,1c0.2,0.5,1.2,1.4,2,1.8l-2.2,3.5l-0.8-0.3
				l0.6-1.5c0.2-0.4,0-0.6-0.2-0.7c-0.3-0.1-0.5-0.1-0.6,0.3l-3.6,9.1c-1.3,3.3-0.9,4.2,0.1,5c-0.8,0-1.2,0.3-1.4,0.6
				c-0.2,0.4,0,1,0.6,1.3c-1.1-0.1-2.3,0.4-3.3,3l-3.7,9.4c-0.3,0.6,0,0.8,0.3,1c0.3,0.1,0.6,0.1,0.8-0.5l0.5-1.4l0.7,0.3l-0.8,4.2
				c-0.8-0.3-2.5-0.5-3-0.2c-0.3-0.3-0.8-0.6-1.4-0.9c-0.6-0.3-1.3-0.7-2-1c-1.5-0.6-2.9-0.9-3.5-0.9c-0.1-0.5-1.7-1.7-2.6-2
				l2.7-3.6l0.6,0.2l-0.6,1.5c-0.3,0.6,0,0.8,0.2,0.9c0.4,0.1,0.6,0.2,0.9-0.4l4.2-10.6c0.9-2.3-0.6-3.3-2.3-4
				c-1.9-0.8-3.3-0.8-4.2,1.4L190.1,291.2z"/>
		</g>
		<g>
			<path class="st1" d="M224,306.6c-0.5,1.1,0,1.7,1.8,2.6c1.6,0.8,2.3,0.7,3.2-1.2l1.5-3.2c0.5-1,0.8-1.9,0.6-2.7
				c2.5,0.6,3.4,0.5,4.7-2.2l0.6,0.3c-1.4,2.9-0.9,3.4,1.2,5.1c-0.8,0.1-1.5,0.8-2.1,1.9l-1.9,3.9c-1,2.2-1,2.5-0.6,3.1
				c-0.7-0.2-2.3-0.5-2.6-0.3c-0.4-0.3-0.7-0.5-1.1-0.8c-0.4-0.2-0.8-0.5-1.3-0.7c-1.1-0.5-1.8-0.7-2.5-0.9c-0.7-0.2-1.5-0.4-2.7-1
				c-1-0.5-1.8-1.1-2.6-1.6c-0.8-0.5-1.8-1.1-2.8-1.6c-0.8-0.4-1.6-0.6-2.3-0.6c-0.1-0.6-1.3-1.7-2.1-2.2l2.7-3.6l0.8,0.4l-0.7,1.4
				c-0.3,0.5-0.3,0.7,0.2,0.9c0.4,0.2,0.7,0.1,0.9-0.4l4.1-8.5c1.4-2.9,1-4.4,0.6-5.1c0.7,0.1,1.3-0.1,1.4-0.4
				c0.1-0.3-0.1-0.8-0.6-1.4c1,0,2.2-0.8,3.2-2.8l4.4-9.1c0.2-0.4,0.1-0.5-0.2-0.7c-0.4-0.2-0.7-0.1-0.9,0.2l-0.7,1.5l-0.7-0.3
				l1.1-4.2c1.1,0.5,2.2,0.6,3,0.5c0.3,0.3,0.7,0.6,1.2,1c0.5,0.4,1.3,0.8,2,1.1c1.4,0.6,2.3,1,3.2,1.2c0.8,0.2,1.4,0.5,2,0.8
				c1,0.5,1.6,0.9,2.3,1.3c0.6,0.4,1.2,0.9,2.2,1.4c0.6,0.3,1.5,0.5,2.2,0.5c0.1,0.5,1,1.4,1.8,1.9c-0.6,0-1.2,0.5-1.8,1.7l-2,4.2
				c-0.6,1.1-0.8,1.9-0.6,2.7c-2.6-0.6-3.3-0.2-4.5,2.3l-0.7-0.3c1.2-2.4,0.9-3.4-1.2-5c0.8-0.1,1.3-0.6,2-2l1.3-2.7
				c0.7-1.5,0.4-2.5-1.2-3.3c-1.4-0.7-2.5-0.6-3.4,1.1l-4.2,8.8c-0.9,1.9-0.4,2.4,0.5,2.9c0.6,0.3,1.2,0.1,1.3-0.2
				c0.2-0.4,0.1-0.6,0-0.9c0-0.3,0-0.8,0.1-1.1c0.3-0.7,2-0.5,2.8-0.1c-0.4,0.1-0.6,0.3-0.7,0.5c-0.1,0.3,0.1,0.7,0.7,1.5
				c0.3,0.4,0.6,1.2,0.4,1.7c-0.2,0.5-0.9,0.7-2,0.6l1.5,1.7l-2.3-0.2c0.7,0.8,1.1,1.5,0.8,2.1c-0.3,0.5-0.8,0.7-1.6,0.7
				c-1.4,0-2,0-2.1,0.3c-0.1,0.3-0.1,0.6,0.1,1c-1.1-0.4-1.9-1.4-1.6-2.2c0.2-0.4,0.7-0.7,1.1-0.9c0.4-0.1,0.6-0.3,0.7-0.7
				c0.2-0.4-0.4-1-0.9-1.2c-1.4-0.6-1.6-0.1-2.8,2.4L224,306.6z"/>
		</g>
		<g>
			<path class="st1" d="M252.2,319.9c-1.2,1.7-1.3,2.4-0.7,2.8c0.2,0.2,0.3,0.2,0.6-0.2l0.7-1.1l0.6,0.4l-1.6,4
				c-0.9-0.6-2.5-1.2-3.2-1.2c-0.3-0.3-0.7-0.8-1.3-1.3c-0.6-0.5-1.2-1-1.7-1.3c-1-0.7-2.6-1.5-3.3-1.7c-0.1-0.5-1.3-2-2-2.5l3.4-3
				l0.6,0.4l-0.7,1.1c-0.2,0.3-0.3,0.6,0.2,0.9c0.3,0.2,0.5,0.2,0.9-0.4l5.2-7.6c1.4-2,1.6-3.6,1.1-4.9c0.4,0.1,0.7,0.1,0.9,0.1
				c0.2,0,0.4-0.1,0.5-0.2c0.2-0.3,0.1-0.8-0.5-1.6c2,0.4,3.1-1,4.8-3.6l4.6-6.8c0.4-0.6,0.3-0.7,0-0.9c-0.3-0.2-0.5-0.2-0.9,0.3
				l-0.8,1.1l-0.6-0.4l1.8-4.3c0.9,0.7,2.4,1.3,2.9,1.2c0.1,0.2,0.4,0.6,0.8,1c0.4,0.4,1,0.9,1.5,1.2c1.1,0.7,2.1,1.3,3.1,1.8
				c0.9,0.5,2,1,3.8,2.2c3.3,2.3,7.3,6.7,5.3,9.8l-5.2,7.6c-1.6,2.3-3.6,2.1-6.4,1.2c1.4,1.7,2.9,4,1.5,5.9l-6.1,9
				c-0.2,0.4-0.2,0.7,0.1,0.9c0.2,0.2,0.4,0.2,0.6-0.1l0.8-1.2l0.6,0.4l-1.5,3.9c-0.7-0.5-2.3-1-2.8-0.8c-0.1-0.2-0.4-0.5-0.8-0.8
				s-0.7-0.6-1.1-0.8c-0.6-0.4-1.6-1-2.3-1.2c0.1-0.6-0.6-2-1.4-2.6l7.8-11.5c1-1.5,0.3-2.3-1.4-3.5c-1.6-1.1-2.4-1.2-3.4,0.2
				L252.2,319.9z M261,306.9c-0.8,1.1-0.3,1.9,1.3,3c1.7,1.2,2.7,1.4,3.8-0.3l6.1-9c0.9-1.3-0.2-2.5-1.5-3.3c-1.4-0.9-2.6-1-3.3,0
				L261,306.9z"/>
		</g>
		<g>
			<path class="st1" d="M281.9,327.4c1.1-2.3,0.7-3.2,0.2-3.7c0.6,0.1,1.2-0.1,1.3-0.4c0.2-0.4,0-0.9-0.5-1.3
				c0.8-0.2,1.8-0.5,2.7-2.6l4.4-9.5c0.3-0.6,0.2-0.8-0.2-1c-0.4-0.2-0.6,0-0.9,0.5l-0.5,1.2l-0.6-0.3l1-4.2
				c0.7,0.4,2.6,0.7,3.1,0.5c0.3,0.3,0.7,0.6,1.2,0.9c0.5,0.3,1.1,0.7,1.8,1c1.5,0.7,2.8,1.1,3.5,1.1c0.1,0.6,1.4,1.7,2.3,2
				l-2.8,3.6l-0.6-0.3l0.8-1.7c0.2-0.4,0.1-0.6-0.3-0.8c-0.3-0.2-0.5,0-0.7,0.4l-4.5,9.7c-1,2.2-0.6,3.1-0.1,3.8
				c-0.7-0.1-1.2,0.1-1.3,0.5c-0.2,0.4,0.1,0.9,0.5,1.3c-1,0-2,0.7-2.8,2.5l-4.3,9.4c-0.4,0.8-0.3,1.1,0.1,1.2
				c0.4,0.2,0.6,0.1,0.8-0.3l0.5-1.1l0.8,0.4l-1.2,3.7c-0.8-0.4-2.4-0.6-3-0.4c-0.3-0.3-0.6-0.6-1.1-0.9c-0.5-0.3-1-0.6-2-1.1
				c-1.8-0.8-2.6-1-3.4-1.1c-0.4-0.8-1.4-1.7-2.2-2.2l2.6-3.3l0.7,0.3l-0.6,1.4c-0.2,0.5-0.2,0.7,0.3,0.9c0.3,0.2,0.6,0,0.9-0.7
				L281.9,327.4z"/>
		</g>
		<g>
			<path class="st1" d="M309.5,318.1c0.2-0.5,0.1-0.6-0.3-0.7c-0.4-0.1-0.7,0-0.8,0.5l-0.4,1.3l-0.8-0.3l0.7-4.1
				c1,0.4,2.8,0.5,3.2,0c0.3,0.3,0.7,0.6,1.2,0.8c0.5,0.3,1.2,0.5,2.1,0.8c1.3,0.4,2,0.6,2.7,0.7c0.7,0.1,1.6,0.2,2.6,0.5
				c1,0.3,1.7,0.8,2.4,1.2c0.7,0.4,1.3,0.7,2.4,1.1c0.9,0.3,2.2,0.5,2.7,0.4c0,0.5,0.7,1.1,1.7,1.5c-0.9,0.2-1.6,1.3-2.3,3.5
				l-1.1,3.6c-0.3,0.9-0.3,1.3,0.4,2c-2.7-0.3-3.5,0.1-4.3,2.6l-0.7-0.2c0.8-2.5,0.2-3.4-2.1-4.6c0.8-0.1,1.2-0.5,1.5-1.4l1.3-4
				c0.5-1.7-0.1-2.2-1.9-2.8c-1.8-0.6-2.5-0.5-3.1,1.2l-3.1,9.8c-0.5,1.6-0.1,2.2,0.9,2.5c0.8,0.3,1.4,0.2,1.5-0.1
				c0.1-0.2,0-0.5-0.1-0.9c-0.2-0.4-0.2-0.9,0-1.4c0.2-0.5,1-0.9,2.3-0.4c-0.4,0.1-0.6,0.3-0.7,0.5c-0.1,0.2,0.1,0.6,0.8,1.2
				c0.5,0.6,1.2,1.5,1.1,1.9c-0.1,0.4-1,0.8-2,1l2,1.6l-2.5,0.2c0.8,0.6,1.3,1.1,1.2,1.7c-0.2,0.5-1.3,0.8-2.1,0.9
				c-1,0.1-1.3,0.3-1.4,0.6c-0.1,0.4,0.2,0.7,0.4,1c-1.1-0.4-2.3-1.2-2-2.1c0.1-0.3,0.3-0.7,0.9-0.9c0.6-0.2,0.8-0.5,1-0.8
				c0.1-0.3-0.3-0.7-1.1-1c-1.1-0.3-1.7,0-2,1.2l-3.7,11.6c-0.1,0.4,0.2,0.7,0.6,0.8c0.4,0.1,0.7,0.1,0.8-0.3l0.5-1.4l0.6,0.2
				l-0.4,4.1c-0.7-0.2-2.4-0.2-2.7,0.1c-0.4-0.3-1.1-0.6-1.8-0.9c-0.7-0.3-1.5-0.6-2-0.8c-1.2-0.4-2.8-0.7-3.8-0.7
				c-0.3-0.4-1.8-1.5-2.7-1.8l2.1-3.8l0.7,0.2l-0.5,1.5c-0.1,0.4,0.1,0.6,0.4,0.8c0.4,0.1,0.5,0,0.6-0.5l3.3-10.5
				c0.7-2.1,0-3.3-0.5-3.7c0.6,0,1.3-0.2,1.4-0.6c0.1-0.4-0.3-1-0.8-1.3c0.7-0.2,1.9-0.8,2.5-2.5L309.5,318.1z"/>
		</g>
		<g>
			<path class="st1" d="M337.4,325.9c0.1-0.5,0-0.6-0.4-0.7c-0.5-0.1-0.7,0.1-0.8,0.6l-0.2,1.4l-0.8-0.1l0.1-4.2
				c1,0.2,2.8,0.1,3.1-0.5c0.3,0.3,0.8,0.5,1.3,0.6c0.5,0.2,1.3,0.3,2.2,0.5c1.4,0.2,2,0.3,2.8,0.3c0.7,0,1.6-0.1,2.6,0.1
				c1,0.2,1.8,0.5,2.5,0.8c0.7,0.3,1.4,0.5,2.5,0.7c0.9,0.2,2.3,0.2,2.7,0.1c0.1,0.5,0.9,1,1.9,1.2c-0.8,0.4-1.4,1.6-1.8,3.8
				l-0.6,3.7c-0.2,0.9-0.1,1.4,0.6,1.9c-2.7,0-3.4,0.6-3.9,3.2l-0.7-0.1c0.4-2.6-0.3-3.4-2.7-4.2c0.8-0.3,1.2-0.7,1.3-1.6l0.7-4.1
				c0.3-1.8-0.4-2.2-2.2-2.5c-1.8-0.3-2.5-0.1-2.8,1.7l-1.7,10.1c-0.3,1.7,0.2,2.2,1.2,2.3c0.8,0.1,1.4,0,1.5-0.3
				c0-0.2-0.1-0.5-0.2-0.8c-0.2-0.3-0.3-0.9-0.2-1.4c0.1-0.5,0.8-1,2.2-0.8c-0.4,0.1-0.5,0.4-0.6,0.6c0,0.2,0.2,0.5,1,1.1
				c0.6,0.5,1.4,1.3,1.3,1.7c-0.1,0.4-0.9,0.9-1.8,1.2l2.2,1.3l-2.5,0.6c0.9,0.4,1.5,0.9,1.4,1.5c-0.1,0.5-1.2,1-1.9,1.2
				c-1,0.3-1.2,0.5-1.3,0.8c-0.1,0.4,0.3,0.7,0.5,1c-1.1-0.2-2.4-0.9-2.3-1.8c0-0.3,0.2-0.7,0.7-1c0.5-0.3,0.8-0.6,0.8-1
				c0-0.3-0.4-0.7-1.3-0.9c-1.1-0.2-1.7,0.2-1.9,1.4l-2,12c-0.1,0.4,0.3,0.6,0.7,0.7c0.5,0.1,0.7,0,0.7-0.4l0.2-1.5l0.6,0.1l0.2,4.2
				c-0.7-0.1-2.4,0.1-2.7,0.5c-0.4-0.2-1.2-0.5-1.9-0.7c-0.7-0.2-1.5-0.4-2.1-0.5c-1.2-0.2-2.9-0.3-3.9-0.2c-0.3-0.4-2-1.3-2.9-1.4
				l1.5-4l0.7,0.1l-0.3,1.5c-0.1,0.4,0.2,0.6,0.6,0.7c0.4,0.1,0.5-0.1,0.6-0.5l1.8-10.8c0.4-2.1-0.5-3.2-1-3.6
				c0.6-0.1,1.2-0.4,1.3-0.8c0.1-0.4-0.4-0.9-0.9-1.2c0.7-0.3,1.8-1.1,2.1-2.8L337.4,325.9z"/>
		</g>
	</g>
	<g>
		<g>
			<path class="st1" d="M143,335.9c0,0,27.2-5.3,48,2.6c25.5,9.7,40.4,25.6,40.4,25.6l21.2-11.3l58.3,40.2c0,0-5.7-12.8,26.8-14.2
				c32.5-1.3,35.6,5.4,35.6,5.4l-2.7-13.4l-27.3,3.7c0,0-11.6-8.7-11.9-8.7s3.4,9.4,3.4,9.4s-35.3-2.6-62.6-14.8
				c-27.3-12.2-46.3-27.7-46.3-27.7l-38.9-20.3l-3.1-5l-2.8,3l-37.7-3.9l5.1,15.9L143,335.9z"/>
		</g>
	</g>
</g>
</svg>
